<?xml version="1.0" encoding="UTF-8"?><svg id="Panel_Bier" xmlns="http://www.w3.org/2000/svg" viewBox="0 0 850 550"><g id="Panel_Gruppe"><g id="Panel"><g id="Panel_Base"><path d="M178.82,60.5h492.35c86.28,0,156.32,70.05,156.32,156.32v116.35c0,86.28-70.05,156.32-156.32,156.32H178.82c-86.28,0-156.32-70.05-156.32-156.32v-116.35c0-86.28,70.05-156.32,156.32-156.32Z" fill="#e65c38"/></g><g id="Flüssigkeit"><path d="M670.63,489.5h.56c63.65,0,118.72-38.56,143.04-93.47-.08-.07-.17-.14-.25-.21-9.71-8.22-18.45-18.5-21.15-30.93-2.43-11.16,.28-22.8,4.05-33.58,7.83-22.44,20.16-43.31,30.63-64.78v-49.85c0-80.32-61.39-146.98-139.57-155.41-2.35,3-6.18,21.25-6.18,21.25,7.9,6.12,16.53,12.13,23.47,19.87,6.92,7.72,12.23,16.26,16.32,25.87,8.58,20.18,11.12,42.96,6.71,64.47-6.47,31.53-25.92,53.61-51.37,71.66-23.21,16.45-50.04,36.3-57.19,65.46-3.57,14.53-1.88,30.54,5.86,43.35,8.32,13.76,22.49,22.66,35.13,32.6,17.55,13.79,29.12,30.17,24.58,53-2.26,11.33-7.61,21.59-14.62,30.69Z" fill="#ffab22"/></g></g><g id="Bier"><g id="Deckelhälfte"><path d="M687.64,73.89c0,8.96-1.83,16.22-4.09,16.22s-4.09-7.26-4.09-16.22,1.83-16.22,4.09-16.22,4.09,7.26,4.09,16.22Z" fill="#ffab22"/><path d="M687.74,73.89c0,8.96-1.83,16.22-4.09,16.22-2.26,0-4.09-7.26-4.09-16.22s1.83-16.22,4.09-16.22,4.09,7.26,4.09,16.22Z" fill="#ffab22"/><path d="M687.84,73.89c0,8.96-1.83,16.22-4.09,16.22s-4.09-7.26-4.09-16.22,1.83-16.22,4.09-16.22,4.09,7.26,4.09,16.22Z" fill="#ffab22"/><path d="M687.94,73.89c0,8.96-1.83,16.22-4.09,16.22s-4.09-7.26-4.09-16.22,1.83-16.22,4.09-16.22,4.09,7.26,4.09,16.22Z" fill="#ffab22"/><path d="M688.05,73.89c0,8.96-1.83,16.22-4.09,16.22s-4.09-7.26-4.09-16.22,1.83-16.22,4.09-16.22,4.09,7.26,4.09,16.22Z" fill="#ffab22"/><path d="M688.15,73.89c0,8.96-1.83,16.22-4.09,16.22s-4.09-7.26-4.09-16.22,1.83-16.22,4.09-16.22,4.09,7.26,4.09,16.22Z" fill="#ffab22"/><path d="M688.25,73.89c0,8.96-1.83,16.22-4.09,16.22-2.26,0-4.09-7.26-4.09-16.22s1.83-16.22,4.09-16.22,4.09,7.26,4.09,16.22Z" fill="#ffab22"/><path d="M688.35,73.89c0,8.96-1.83,16.22-4.09,16.22-2.26,0-4.09-7.26-4.09-16.22s1.83-16.22,4.09-16.22,4.09,7.26,4.09,16.22Z" fill="#ffab22"/><path d="M688.45,73.89c0,8.96-1.83,16.22-4.09,16.22-2.26,0-4.09-7.26-4.09-16.22,0-8.96,1.83-16.22,4.09-16.22s4.09,7.26,4.09,16.22Z" fill="#ffab22"/><path d="M688.55,73.89c0,8.96-1.83,16.22-4.09,16.22-2.26,0-4.09-7.26-4.09-16.22,0-8.96,1.83-16.22,4.09-16.22s4.09,7.26,4.09,16.22Z" fill="#ffab22"/><path d="M688.65,73.89c0,8.96-1.83,16.22-4.09,16.22-2.26,0-4.09-7.26-4.09-16.22,0-8.96,1.83-16.22,4.09-16.22s4.09,7.26,4.09,16.22Z" fill="#ffab22"/><path d="M688.75,73.89c0,8.96-1.83,16.22-4.09,16.22s-4.09-7.26-4.09-16.22,1.83-16.22,4.09-16.22,4.09,7.26,4.09,16.22Z" fill="#ffab22"/><path d="M688.85,73.89c0,8.96-1.83,16.22-4.09,16.22-2.26,0-4.09-7.26-4.09-16.22s1.83-16.22,4.09-16.22,4.09,7.26,4.09,16.22Z" fill="#ffab22"/><path d="M688.95,73.89c0,8.96-1.83,16.22-4.09,16.22-2.26,0-4.09-7.26-4.09-16.22,0-8.96,1.83-16.22,4.09-16.22s4.09,7.26,4.09,16.22Z" fill="#ffab22"/><path d="M689.05,73.89c0,8.96-1.83,16.22-4.09,16.22-2.26,0-4.09-7.26-4.09-16.22s1.83-16.22,4.09-16.22,4.09,7.26,4.09,16.22Z" fill="#ffab22"/><path d="M689.15,73.89c0,8.96-1.83,16.22-4.09,16.22-2.26,0-4.09-7.26-4.09-16.22s1.83-16.22,4.09-16.22,4.09,7.26,4.09,16.22Z" fill="#ffab22"/><path d="M689.25,73.89c0,8.96-1.83,16.22-4.09,16.22-2.26,0-4.09-7.26-4.09-16.22s1.83-16.22,4.09-16.22,4.09,7.26,4.09,16.22Z" fill="#ffab22"/><path d="M689.35,73.89c0,8.96-1.83,16.22-4.09,16.22-2.26,0-4.09-7.26-4.09-16.22,0-8.96,1.83-16.22,4.09-16.22s4.09,7.26,4.09,16.22Z" fill="#ffab22"/><path d="M689.45,73.89c0,8.96-1.83,16.22-4.09,16.22-2.26,0-4.09-7.26-4.09-16.22,0-8.96,1.83-16.22,4.09-16.22s4.09,7.26,4.09,16.22Z" fill="#ffab22"/><path d="M689.55,73.89c0,8.96-1.83,16.22-4.09,16.22-2.26,0-4.09-7.26-4.09-16.22,0-8.96,1.83-16.22,4.09-16.22s4.09,7.26,4.09,16.22Z" fill="#ffab22"/><path d="M689.66,73.89c0,8.96-1.83,16.22-4.09,16.22-2.26,0-4.09-7.26-4.09-16.22,0-8.96,1.83-16.22,4.09-16.22s4.09,7.26,4.09,16.22Z" fill="#ffab22"/><path d="M689.76,73.89c0,8.96-1.83,16.22-4.09,16.22-2.26,0-4.09-7.26-4.09-16.22s1.83-16.22,4.09-16.22,4.09,7.26,4.09,16.22Z" fill="#ffab22"/><path d="M689.86,73.89c0,8.96-1.83,16.22-4.09,16.22-2.26,0-4.09-7.26-4.09-16.22,0-8.96,1.83-16.22,4.09-16.22s4.09,7.26,4.09,16.22Z" fill="#ffab22"/><path d="M689.96,73.89c0,8.96-1.83,16.22-4.09,16.22-2.26,0-4.09-7.26-4.09-16.22,0-8.96,1.83-16.22,4.09-16.22s4.09,7.26,4.09,16.22Z" fill="#ffab22"/><path d="M690.06,73.89c0,8.96-1.83,16.22-4.09,16.22-2.26,0-4.09-7.26-4.09-16.22,0-8.96,1.83-16.22,4.09-16.22s4.09,7.26,4.09,16.22Z" fill="#ffab22"/><path d="M690.16,73.89c0,8.96-1.83,16.22-4.09,16.22-2.26,0-4.09-7.26-4.09-16.22,0-8.96,1.83-16.22,4.09-16.22s4.09,7.26,4.09,16.22Z" fill="#ffab22"/><path d="M690.26,73.89c0,8.96-1.83,16.22-4.09,16.22-2.26,0-4.09-7.26-4.09-16.22,0-8.96,1.83-16.22,4.09-16.22s4.09,7.26,4.09,16.22Z" fill="#ffab22"/><path d="M690.36,73.89c0,8.96-1.83,16.22-4.09,16.22-2.26,0-4.09-7.26-4.09-16.22,0-8.96,1.83-16.22,4.09-16.22s4.09,7.26,4.09,16.22Z" fill="#ffab22"/><path d="M690.46,73.89c0,8.96-1.83,16.22-4.09,16.22-2.26,0-4.09-7.26-4.09-16.22,0-8.96,1.83-16.22,4.09-16.22s4.09,7.26,4.09,16.22Z" fill="#ffab22"/><path d="M690.56,73.89c0,8.96-1.83,16.22-4.09,16.22-2.26,0-4.09-7.26-4.09-16.22,0-8.96,1.83-16.22,4.09-16.22s4.09,7.26,4.09,16.22Z" fill="#ffab22"/><path d="M690.66,73.89c0,8.96-1.83,16.22-4.09,16.22-2.26,0-4.09-7.26-4.09-16.22,0-8.96,1.83-16.22,4.09-16.22s4.09,7.26,4.09,16.22Z" fill="#ffab22"/><path d="M690.76,73.89c0,8.96-1.83,16.22-4.09,16.22-2.26,0-4.09-7.26-4.09-16.22,0-8.96,1.83-16.22,4.09-16.22s4.09,7.26,4.09,16.22Z" fill="#ffab22"/><path d="M690.86,73.89c0,8.96-1.83,16.22-4.09,16.22-2.26,0-4.09-7.26-4.09-16.22,0-8.96,1.83-16.22,4.09-16.22s4.09,7.26,4.09,16.22Z" fill="#ffab22"/><path d="M690.96,73.89c0,8.96-1.83,16.22-4.09,16.22-2.26,0-4.09-7.26-4.09-16.22,0-8.96,1.83-16.22,4.09-16.22s4.09,7.26,4.09,16.22Z" fill="#ffab22"/><path d="M691.06,73.89c0,8.96-1.83,16.22-4.09,16.22-2.26,0-4.09-7.26-4.09-16.22,0-8.96,1.83-16.22,4.09-16.22s4.09,7.26,4.09,16.22Z" fill="#ffab22"/><path d="M691.16,73.89c0,8.96-1.83,16.22-4.09,16.22-2.26,0-4.09-7.26-4.09-16.22,0-8.96,1.83-16.22,4.09-16.22s4.09,7.26,4.09,16.22Z" fill="#ffab22"/><path d="M691.26,73.89c0,8.96-1.83,16.22-4.09,16.22-2.26,0-4.09-7.26-4.09-16.22,0-8.96,1.83-16.22,4.09-16.22s4.09,7.26,4.09,16.22Z" fill="#ffab22"/><path d="M691.37,73.89c0,8.96-1.83,16.22-4.09,16.22-2.26,0-4.09-7.26-4.09-16.22,0-8.96,1.83-16.22,4.09-16.22s4.09,7.26,4.09,16.22Z" fill="#ffab22"/><path d="M691.47,73.89c0,8.96-1.83,16.22-4.09,16.22-2.26,0-4.09-7.26-4.09-16.22,0-8.96,1.83-16.22,4.09-16.22s4.09,7.26,4.09,16.22Z" fill="#ffab22"/><path d="M691.57,73.89c0,8.96-1.83,16.22-4.09,16.22-2.26,0-4.09-7.26-4.09-16.22,0-8.96,1.83-16.22,4.09-16.22s4.09,7.26,4.09,16.22Z" fill="#ffab22"/><path d="M691.67,73.89c0,8.96-1.83,16.22-4.09,16.22-2.26,0-4.09-7.26-4.09-16.22,0-8.96,1.83-16.22,4.09-16.22s4.09,7.26,4.09,16.22Z" fill="#ffab22"/><path d="M691.77,73.89c0,8.96-1.83,16.22-4.09,16.22-2.26,0-4.09-7.26-4.09-16.22,0-8.96,1.83-16.22,4.09-16.22s4.09,7.26,4.09,16.22Z" fill="#ffab22"/><path d="M691.87,73.89c0,8.96-1.83,16.22-4.09,16.22-2.26,0-4.09-7.26-4.09-16.22,0-8.96,1.83-16.22,4.09-16.22s4.09,7.26,4.09,16.22Z" fill="#ffab22"/><path d="M691.97,73.89c0,8.96-1.83,16.22-4.09,16.22-2.26,0-4.09-7.26-4.09-16.22,0-8.96,1.83-16.22,4.09-16.22s4.09,7.26,4.09,16.22Z" fill="#ffab22"/><path d="M692.07,73.89c0,8.96-1.83,16.22-4.09,16.22-2.26,0-4.09-7.26-4.09-16.22,0-8.96,1.83-16.22,4.09-16.22s4.09,7.26,4.09,16.22Z" fill="#ffab22"/><path d="M692.17,73.89c0,8.96-1.83,16.22-4.09,16.22-2.26,0-4.09-7.26-4.09-16.22,0-8.96,1.83-16.22,4.09-16.22s4.09,7.26,4.09,16.22Z" fill="#ffab22"/><path d="M692.27,73.89c0,8.96-1.83,16.22-4.09,16.22-2.26,0-4.09-7.26-4.09-16.22,0-8.96,1.83-16.22,4.09-16.22s4.09,7.26,4.09,16.22Z" fill="#ffab22"/><path d="M692.37,73.89c0,8.96-1.83,16.22-4.09,16.22-2.26,0-4.09-7.26-4.09-16.22,0-8.96,1.83-16.22,4.09-16.22s4.09,7.26,4.09,16.22Z" fill="#ffab22"/></g><path d="M463.54,118c-11.18-.18-20.21-19.81-20.21-44s9.03-43.81,20.21-44h-29.53v.02c-.19,0-.38-.02-.57-.02-15.46,0-28,19.7-28,44s12.54,44,28,44c.19,0,.38-.02,.57-.02v.02h29.54Z" fill="#ffab22"/><path d="M613.23,53.23c-10.48-13.83-31.09-23.23-54.8-23.23-.14,0-.28,0-.42,0h0s-93.06,0-93.06,0c0,0,0,0,0,0h88.06c-10.5,.19-18.99,19.81-18.99,44s8.49,43.82,18.99,44h5c.14,0,.28,0,.42,0,23.72,0,44.33-9.41,54.8-23.23l72.77-6.48v-28.57l-72.77-6.48Z" fill="#ffab22"/><g id="Etikett"><path d="M463.69,29.99c.05,0,.11,0,.16,0h89.15c-10.5,.19-18.99,19.81-18.99,44,0,24.19,8.49,43.82,18.99,44h-89.15c-.05,0-.11,0-.16,0-11.25,0-20.37-19.7-20.37-44.01,0-24.31,9.12-44.01,20.37-44.01Z" fill="#e65c38"/></g></g></g></svg>