<?xml version="1.0" encoding="UTF-8"?><svg id="Panel_Eis" xmlns="http://www.w3.org/2000/svg" viewBox="0 0 850 550"><g id="Panel_Eis_Gruppe"><g id="Panel"><rect x="22.5" y="60.5" width="805" height="429" rx="156.31" ry="156.31" fill="#63b5e7"/><path d="M364.92,115.6c-21.06,1.03-42.2,.6-63.27,.57-11.47-.02-25.05-1.43-35.31,4.77-2.58,1.56-4.99,3.82-5.58,6.78-.47,2.33,.28,4.79,1.64,6.74s3.27,3.45,5.28,4.72c4.92,3.09,10.5,4.91,16.13,6.24,4.41,1.05,8.66,1.58,12.73,3.62,4.4,2.21,8.32,5.48,10.86,9.74,4.99,8.36,3.1,18.39-3.34,25.39-10.42,11.34-27.89,14.04-42.48,14.32-.76,.01-1.52,.02-2.28,.02-70.42,0-91.94,.57-133.32,.57-4.93,0-10.58,.59-14.68,3.59-3.57,2.61-5.09,7.87-1.43,11.21,1.49,1.35,3.49,1.97,5.4,2.62,6.89,2.38,14.32,7.27,14.65,15.32,.25,5.99-4.09,10.58-9.16,13.09-5.79,2.86-12.54,3.6-18.92,3.6H22.5v-31.69c0-85.97,70.34-156.31,156.31-156.31h132.17c44.29,0,48.84,0,62.46,2.27,40.88,6.81,38.05,50.54-8.52,52.81h.01Z" fill="#4f92e7"/></g><g id="Eiswürfel"><g><rect x="95" y="17" width="117" height="117" rx="22.59" ry="22.59" fill="#63b5e7"/><rect x="94" y="18" width="117" height="117" rx="22.59" ry="22.59" fill="#63b5e7"/><rect x="93" y="19" width="117" height="117" rx="22.59" ry="22.59" fill="#63b5e7"/><rect x="92" y="19" width="117" height="117" rx="22.59" ry="22.59" fill="#63b5e7"/><rect x="92" y="20" width="117" height="117" rx="22.59" ry="22.59" fill="#63b5e7"/><rect x="91" y="21" width="117" height="117" rx="22.59" ry="22.59" fill="#63b5e7"/><rect x="90" y="21" width="117" height="117" rx="22.59" ry="22.59" fill="#63b5e7"/><rect x="90" y="22" width="117" height="117" rx="22.59" ry="22.59" fill="#63b5e7"/><rect x="89" y="23" width="117" height="117" rx="22.59" ry="22.59" fill="#63b5e7"/><rect x="88" y="23" width="117" height="117" rx="22.59" ry="22.59" fill="#63b5e7"/><rect x="87" y="24" width="117" height="117" rx="22.59" ry="22.59" fill="#63b5e7"/><rect x="87" y="25" width="117" height="117" rx="22.59" ry="22.59" fill="#63b5e7"/><rect x="86" y="26" width="117" height="117" rx="22.59" ry="22.59" fill="#63b5e7"/><rect x="85" y="26" width="117" height="117" rx="22.59" ry="22.59" fill="#63b5e7"/><rect x="85" y="27" width="117" height="117" rx="22.59" ry="22.59" fill="#63b5e7"/><rect x="84" y="28" width="117" height="117" rx="22.59" ry="22.59" fill="#63b5e7"/><rect x="83" y="28" width="117" height="117" rx="22.59" ry="22.59" fill="#63b5e7"/><rect x="82" y="29" width="117" height="117" rx="22.59" ry="22.59" fill="#63b5e7"/><rect x="82" y="30" width="117" height="117" rx="22.59" ry="22.59" fill="#63b5e7"/><rect x="81" y="31" width="117" height="117" rx="22.59" ry="22.59" fill="#63b5e7"/><rect x="80" y="31" width="117" height="117" rx="22.59" ry="22.59" fill="#63b5e7"/><rect x="80" y="32" width="117" height="117" rx="22.59" ry="22.59" fill="#63b5e7"/><rect x="79" y="33" width="117" height="117" rx="22.59" ry="22.59" fill="#63b5e7"/><rect x="78" y="33" width="117" height="117" rx="22.59" ry="22.59" fill="#63b5e7"/><rect x="77" y="34" width="117" height="117" rx="22.59" ry="22.59" fill="#63b5e7"/><rect x="77" y="35" width="117" height="117" rx="22.59" ry="22.59" fill="#63b5e7"/><rect x="76" y="36" width="117" height="117" rx="22.59" ry="22.59" fill="#63b5e7"/><rect x="75" y="36" width="117" height="117" rx="22.59" ry="22.59" fill="#63b5e7"/><rect x="75" y="37" width="117" height="117" rx="22.59" ry="22.59" fill="#63b5e7"/><rect x="74" y="38" width="117" height="117" rx="22.59" ry="22.59" fill="#63b5e7"/><rect x="73" y="38" width="117" height="117" rx="22.59" ry="22.59" fill="#63b5e7"/><rect x="72" y="39" width="117" height="117" rx="22.59" ry="22.59" fill="#63b5e7"/><rect x="72" y="40" width="117" height="117" rx="22.59" ry="22.59" fill="#63b5e7"/><rect x="71" y="41" width="117" height="117" rx="22.59" ry="22.59" fill="#63b5e7"/><rect x="70" y="41" width="117" height="117" rx="22.59" ry="22.59" fill="#63b5e7"/></g><rect x="69" y="42" width="117" height="117" rx="22.59" ry="22.59" fill="#63b5e7"/><line x1="93.5" y1="55.5" x2="155.5" y2="55.5" fill="none" stroke="#4f92e7" stroke-linecap="round" stroke-miterlimit="10" stroke-width="6.84"/><line x1="172.5" y1="135.5" x2="172.5" y2="75.5" fill="none" stroke="#4f92e7" stroke-linecap="round" stroke-miterlimit="10" stroke-width="6.84"/><line x1="180.96" y1="46.74" x2="195.8" y2="31.89" fill="none" stroke="#4f92e7" stroke-linecap="round" stroke-miterlimit="10" stroke-width="6.84"/></g></g></svg>