<?xml version="1.0" encoding="UTF-8"?><svg id="Ebene_1" xmlns="http://www.w3.org/2000/svg" viewBox="0 0 98.05 319.65"><g id="Bier"><g id="Deckelhälfte"><ellipse cx="48.91" cy="9.82" rx="18.06" ry="4.55" fill="#ffab22"/><ellipse cx="48.91" cy="9.72" rx="18.06" ry="4.55" fill="#ffab22"/><ellipse cx="48.91" cy="9.62" rx="18.06" ry="4.55" fill="#ffab22"/><path d="M48.91,4.97c9.98,0,18.06,2.04,18.06,4.55,0,2.52-8.09,4.55-18.06,4.55s-18.06-2.04-18.06-4.55c0-2.52,8.09-4.55,18.06-4.55Z" fill="#ffab22"/><ellipse cx="48.91" cy="9.42" rx="18.06" ry="4.55" fill="#ffab22"/><ellipse cx="48.91" cy="9.32" rx="18.06" ry="4.55" fill="#ffab22"/><path d="M48.91,4.67c9.98,0,18.06,2.04,18.06,4.55,0,2.52-8.09,4.55-18.06,4.55s-18.06-2.04-18.06-4.55c0-2.52,8.09-4.55,18.06-4.55Z" fill="#ffab22"/><ellipse cx="48.91" cy="9.13" rx="18.06" ry="4.55" fill="#ffab22"/><path d="M48.91,4.47c9.98,0,18.06,2.04,18.06,4.55,0,2.52-8.09,4.55-18.06,4.55s-18.06-2.04-18.06-4.55c0-2.52,8.09-4.55,18.06-4.55Z" fill="#ffab22"/><ellipse cx="48.91" cy="8.93" rx="18.06" ry="4.55" fill="#ffab22"/><path d="M48.91,4.27c9.98,0,18.06,2.04,18.06,4.55,0,2.52-8.09,4.55-18.06,4.55s-18.06-2.04-18.06-4.55c0-2.52,8.09-4.55,18.06-4.55Z" fill="#ffab22"/><path d="M48.91,4.17c9.98,0,18.06,2.04,18.06,4.55,0,2.52-8.09,4.55-18.06,4.55s-18.06-2.04-18.06-4.55c0-2.52,8.09-4.55,18.06-4.55Z" fill="#ffab22"/><path d="M48.91,4.07c9.98,0,18.06,2.04,18.06,4.55,0,2.52-8.09,4.55-18.06,4.55s-18.06-2.04-18.06-4.55c0-2.52,8.09-4.55,18.06-4.55Z" fill="#ffab22"/><path d="M48.91,3.98c9.98,0,18.06,2.04,18.06,4.55,0,2.52-8.09,4.55-18.06,4.55s-18.06-2.04-18.06-4.55c0-2.52,8.09-4.55,18.06-4.55Z" fill="#ffab22"/><path d="M48.91,3.88c9.98,0,18.06,2.04,18.06,4.55,0,2.52-8.09,4.55-18.06,4.55-9.98,0-18.06-2.04-18.06-4.55,0-2.52,8.09-4.55,18.06-4.55Z" fill="#ffab22"/><ellipse cx="48.91" cy="8.33" rx="18.06" ry="4.55" fill="#ffab22"/><path d="M48.91,3.68c9.98,0,18.06,2.04,18.06,4.55,0,2.52-8.09,4.55-18.06,4.55s-18.06-2.04-18.06-4.55c0-2.52,8.09-4.55,18.06-4.55Z" fill="#ffab22"/><path d="M48.91,3.58c9.98,0,18.06,2.04,18.06,4.55,0,2.52-8.09,4.55-18.06,4.55s-18.06-2.04-18.06-4.55c0-2.52,8.09-4.55,18.06-4.55Z" fill="#ffab22"/><path d="M48.91,3.48c9.98,0,18.06,2.04,18.06,4.55,0,2.52-8.09,4.55-18.06,4.55s-18.06-2.04-18.06-4.55c0-2.52,8.09-4.55,18.06-4.55Z" fill="#ffab22"/><path d="M48.91,3.38c9.98,0,18.06,2.04,18.06,4.55,0,2.52-8.09,4.55-18.06,4.55s-18.06-2.04-18.06-4.55c0-2.52,8.09-4.55,18.06-4.55Z" fill="#ffab22"/><path d="M48.91,3.28c9.98,0,18.06,2.04,18.06,4.55,0,2.52-8.09,4.55-18.06,4.55-9.98,0-18.06-2.04-18.06-4.55,0-2.52,8.09-4.55,18.06-4.55Z" fill="#ffab22"/><path d="M48.91,3.18c9.98,0,18.06,2.04,18.06,4.55,0,2.52-8.09,4.55-18.06,4.55s-18.06-2.04-18.06-4.55,8.09-4.55,18.06-4.55Z" fill="#ffab22"/><path d="M48.91,3.08c9.98,0,18.06,2.04,18.06,4.55,0,2.52-8.09,4.55-18.06,4.55-9.98,0-18.06-2.04-18.06-4.55,0-2.52,8.09-4.55,18.06-4.55Z" fill="#ffab22"/><path d="M48.91,2.98c9.98,0,18.06,2.04,18.06,4.55,0,2.52-8.09,4.55-18.06,4.55-9.98,0-18.06-2.04-18.06-4.55,0-2.52,8.09-4.55,18.06-4.55Z" fill="#ffab22"/><path d="M48.91,2.88c9.98,0,18.06,2.04,18.06,4.55,0,2.52-8.09,4.55-18.06,4.55-9.98,0-18.06-2.04-18.06-4.55s8.09-4.55,18.06-4.55Z" fill="#ffab22"/><path d="M48.91,2.78c9.98,0,18.06,2.04,18.06,4.55,0,2.52-8.09,4.55-18.06,4.55-9.98,0-18.06-2.04-18.06-4.55,0-2.52,8.09-4.55,18.06-4.55Z" fill="#ffab22"/><path d="M48.91,2.68c9.98,0,18.06,2.04,18.06,4.55,0,2.52-8.09,4.55-18.06,4.55-9.98,0-18.06-2.04-18.06-4.55,0-2.52,8.09-4.55,18.06-4.55Z" fill="#ffab22"/><path d="M48.91,2.58c9.98,0,18.06,2.04,18.06,4.55,0,2.52-8.09,4.55-18.06,4.55-9.98,0-18.06-2.04-18.06-4.55,0-2.52,8.09-4.55,18.06-4.55Z" fill="#ffab22"/><path d="M48.91,2.48c9.98,0,18.06,2.04,18.06,4.55,0,2.52-8.09,4.55-18.06,4.55-9.98,0-18.06-2.04-18.06-4.55,0-2.52,8.09-4.55,18.06-4.55Z" fill="#ffab22"/><path d="M48.91,2.39c9.98,0,18.06,2.04,18.06,4.55,0,2.52-8.09,4.55-18.06,4.55-9.98,0-18.06-2.04-18.06-4.55,0-2.52,8.09-4.55,18.06-4.55Z" fill="#ffab22"/><path d="M48.91,2.29c9.98,0,18.06,2.04,18.06,4.55,0,2.52-8.09,4.55-18.06,4.55-9.98,0-18.06-2.04-18.06-4.55,0-2.52,8.09-4.55,18.06-4.55Z" fill="#ffab22"/><path d="M48.91,2.19c9.98,0,18.06,2.04,18.06,4.55,0,2.52-8.09,4.55-18.06,4.55-9.98,0-18.06-2.04-18.06-4.55,0-2.52,8.09-4.55,18.06-4.55Z" fill="#ffab22"/><path d="M48.91,2.09c9.98,0,18.06,2.04,18.06,4.55,0,2.52-8.09,4.55-18.06,4.55-9.98,0-18.06-2.04-18.06-4.55,0-2.52,8.09-4.55,18.06-4.55Z" fill="#ffab22"/><path d="M48.91,1.99c9.98,0,18.06,2.04,18.06,4.55,0,2.52-8.09,4.55-18.06,4.55-9.98,0-18.06-2.04-18.06-4.55,0-2.52,8.09-4.55,18.06-4.55Z" fill="#ffab22"/><path d="M48.91,1.89c9.98,0,18.06,2.04,18.06,4.55,0,2.52-8.09,4.55-18.06,4.55-9.98,0-18.06-2.04-18.06-4.55S38.93,1.89,48.91,1.89Z" fill="#ffab22"/><path d="M48.91,1.79c9.98,0,18.06,2.04,18.06,4.55,0,2.52-8.09,4.55-18.06,4.55-9.98,0-18.06-2.04-18.06-4.55,0-2.52,8.09-4.55,18.06-4.55Z" fill="#ffab22"/><path d="M48.91,1.69c9.98,0,18.06,2.04,18.06,4.55,0,2.52-8.09,4.55-18.06,4.55-9.98,0-18.06-2.04-18.06-4.55,0-2.52,8.09-4.55,18.06-4.55Z" fill="#ffab22"/><path d="M48.91,1.59c9.98,0,18.06,2.04,18.06,4.55,0,2.52-8.09,4.55-18.06,4.55-9.98,0-18.06-2.04-18.06-4.55S38.93,1.59,48.91,1.59Z" fill="#ffab22"/><path d="M48.91,1.49c9.98,0,18.06,2.04,18.06,4.55,0,2.52-8.09,4.55-18.06,4.55-9.98,0-18.06-2.04-18.06-4.55,0-2.52,8.09-4.55,18.06-4.55Z" fill="#ffab22"/><path d="M48.91,1.39c9.98,0,18.06,2.04,18.06,4.55,0,2.52-8.09,4.55-18.06,4.55-9.98,0-18.06-2.04-18.06-4.55,0-2.52,8.09-4.55,18.06-4.55Z" fill="#ffab22"/><path d="M48.91,1.29c9.98,0,18.06,2.04,18.06,4.55,0,2.52-8.09,4.55-18.06,4.55-9.98,0-18.06-2.04-18.06-4.55S38.93,1.29,48.91,1.29Z" fill="#ffab22"/><path d="M48.91,1.19c9.98,0,18.06,2.04,18.06,4.55,0,2.52-8.09,4.55-18.06,4.55-9.98,0-18.06-2.04-18.06-4.55,0-2.52,8.09-4.55,18.06-4.55Z" fill="#ffab22"/><path d="M48.91,1.09c9.98,0,18.06,2.04,18.06,4.55,0,2.52-8.09,4.55-18.06,4.55-9.98,0-18.06-2.04-18.06-4.55,0-2.52,8.09-4.55,18.06-4.55Z" fill="#ffab22"/><path d="M48.91,.99c9.98,0,18.06,2.04,18.06,4.55,0,2.52-8.09,4.55-18.06,4.55-9.98,0-18.06-2.04-18.06-4.55,0-2.52,8.09-4.55,18.06-4.55Z" fill="#ffab22"/><path d="M48.91,.89c9.98,0,18.06,2.04,18.06,4.55,0,2.52-8.09,4.55-18.06,4.55-9.98,0-18.06-2.04-18.06-4.55S38.93,.89,48.91,.89Z" fill="#ffab22"/><path d="M48.91,.8c9.98,0,18.06,2.04,18.06,4.55,0,2.52-8.09,4.55-18.06,4.55-9.98,0-18.06-2.04-18.06-4.55S38.93,.8,48.91,.8Z" fill="#ffab22"/><path d="M48.91,.7c9.98,0,18.06,2.04,18.06,4.55,0,2.52-8.09,4.55-18.06,4.55-9.98,0-18.06-2.04-18.06-4.55,0-2.52,8.09-4.55,18.06-4.55Z" fill="#ffab22"/><path d="M48.91,.6c9.98,0,18.06,2.04,18.06,4.55,0,2.52-8.09,4.55-18.06,4.55-9.98,0-18.06-2.04-18.06-4.55S38.93,.6,48.91,.6Z" fill="#ffab22"/><path d="M48.91,.5c9.98,0,18.06,2.04,18.06,4.55,0,2.52-8.09,4.55-18.06,4.55-9.98,0-18.06-2.04-18.06-4.55S38.93,.5,48.91,.5Z" fill="#ffab22"/><path d="M48.91,.4c9.98,0,18.06,2.04,18.06,4.55,0,2.52-8.09,4.55-18.06,4.55-9.98,0-18.06-2.04-18.06-4.55S38.93,.4,48.91,.4Z" fill="#ffab22"/><path d="M48.91,.3c9.98,0,18.06,2.04,18.06,4.55,0,2.52-8.09,4.55-18.06,4.55-9.98,0-18.06-2.04-18.06-4.55S38.93,.3,48.91,.3Z" fill="#ffab22"/><path d="M48.91,.2c9.98,0,18.06,2.04,18.06,4.55,0,2.52-8.09,4.55-18.06,4.55-9.98,0-18.06-2.04-18.06-4.55S38.93,.2,48.91,.2Z" fill="#ffab22"/><path d="M48.91,.1c9.98,0,18.06,2.04,18.06,4.55,0,2.52-8.09,4.55-18.06,4.55-9.98,0-18.06-2.04-18.06-4.55S38.93,.1,48.91,.1Z" fill="#ffab22"/><path d="M48.91,0c9.98,0,18.06,2.04,18.06,4.55,0,2.52-8.09,4.55-18.06,4.55-9.98,0-18.06-2.04-18.06-4.55S38.93,0,48.91,0Z" fill="#ffab22"/></g><path d="M98.04,254.92c-.2,12.45-22.07,22.52-49.02,22.52S.22,267.37,0,254.92v32.9h.03c0,.21-.03,.42-.03,.64,0,17.23,21.95,31.19,49.02,31.19s49.02-13.97,49.02-31.19c0-.21-.02-.42-.03-.64h.03v-32.9Z" fill="#ffab22"/><path d="M25.89,88.17C10.49,99.84,0,122.8,0,149.22c0,.16,0,.31,0,.47H0v103.67s0,0,0,0v-98.1c.21,11.7,22.07,21.16,49.02,21.16s48.81-9.46,49.02-21.16v-5.57h0c0-.16,0-.31,0-.47,0-26.42-10.48-49.38-25.88-61.05L64.94,7.1h-31.83l-7.22,81.07Z" fill="#ffab22"/><g id="Etikett"><path d="M0,254.75c0-.06,0-.12,0-.18v-99.31c.21,11.7,22.07,21.16,49.02,21.16,26.95,0,48.81-9.46,49.02-21.16v99.31c0,.06,0,.12,0,.18,0,12.53-21.95,22.69-49.03,22.69-27.08,0-49.03-10.16-49.03-22.69Z" fill="#e65c38"/></g></g></svg>