<?xml version="1.0" encoding="UTF-8"?><svg id="Ebene_1" xmlns="http://www.w3.org/2000/svg" viewBox="0 0 180.22 134.35"><g id="Limette"><g id="Schale"><path d="M8.83,0c-22,47.33-1.46,103.53,45.87,125.52,47.33,22,103.53,1.46,125.52-45.87L8.83,0Z" fill="#458958"/><path d="M68.16,96.54C27.82,77.79,4.81,38.05,8.91,.04L180.13,79.62c-26.42,27.64-71.62,35.67-111.97,16.92Z" fill="#8cc63f"/></g><g id="Zwischenräume"><path d="M83.53,34.72L18.84,50.08c.93,1.79,1.91,3.56,2.95,5.3l69.89-16.6-25.69,56.7c.72,.35,1.44,.72,2.17,1.06,1.04,.48,2.09,.94,3.13,1.39l25.64-56.59,32.29,64.16c2.01-.32,3.99-.71,5.96-1.14l-29.97-59.55-21.69-10.08Z" fill="#458958"/></g></g></svg>