<?xml version="1.0" encoding="UTF-8"?><svg id="Panel_Limette" xmlns="http://www.w3.org/2000/svg" viewBox="0 0 850 550"><g id="Panel_Gruppe"><g id="Panel"><rect x="22.5" y="60.5" width="805" height="429" rx="156.32" ry="156.32" transform="translate(850 550) rotate(-180)" fill="#458958"/><path d="M754.09,84.5h-17.88c-55.63,0-135.99,.99-187.92,23.84-15.64,6.88-21.52,19.64-19.84,29.06,.68,3.81,2.95,7.36,6.06,10.28,15.71,14.78,45.28,13.48,66.87,16.63,14.83,2.17,54.76,10.22,44.96,28.53-3.91,7.31-14.58,10.89-13.82,20.02,.41,4.96,4.62,9.27,9.64,12.18,8.56,4.96,19.35,6.62,29.82,7.68,24.72,2.51,49.73,2.46,74.65,2.4,23.91-.06,53.13-.26,80.88-.42v-17.87c0-55.58-29.4-104.61-73.41-132.34Z" fill="#8cc63f"/></g><g id="Limette"><g id="Schale"><path d="M647.93,12.91c-25.8,55.52-1.71,121.45,53.81,147.26,55.52,25.8,121.45,1.71,147.26-53.81L647.93,12.91Z" fill="#458958"/><path d="M717.55,126.16c-47.33-22-74.32-68.62-69.52-113.21l200.88,93.36c-30.99,32.42-84.02,41.85-131.36,19.85Z" fill="#8cc63f"/></g><g id="Zwischenräume"><path d="M735.57,53.64l-75.89,18.02c1.09,2.1,2.24,4.17,3.47,6.22l81.99-19.47-30.14,66.52c.85,.42,1.68,.84,2.54,1.24,1.22,.57,2.45,1.1,3.68,1.63l30.08-66.39,37.89,75.27c2.36-.37,4.68-.83,6.99-1.34l-35.16-69.86-25.45-11.83Z" fill="#458958"/></g></g></g></svg>