<?xml version="1.0" encoding="UTF-8"?><svg id="Ebene_1" xmlns="http://www.w3.org/2000/svg" viewBox="0 0 237.34 179.76"><g id="Bier"><g id="Sprechblasen"><ellipse cx="59.45" cy="170.4" rx="42.13" ry="9.36" fill="#f4a7b9"/><path d="M219.02,158.49c0,5.17-18.86,9.36-42.13,9.36-23.27,0-42.13-4.19-42.13-9.36,0-5.17,18.86-9.36,42.13-9.36s42.13,4.19,42.13,9.36Z" fill="#f4a7b9"/><polygon points="119.64 76.54 93.24 83.94 106.94 103.68 80.46 95.9 74.48 118.48 59.82 100.47 10.43 145.08 39.18 95.9 10.15 103.04 26.4 83.94 0 76.54 26.4 69.14 11.43 49.39 39.18 57.17 44.42 35.37 59.82 52.61 76.56 35.37 80.46 57.17 108.21 50.03 93.24 69.14 119.64 76.54" fill="#d560a2"/><polygon points="117.7 41.17 144.1 48.57 130.41 68.31 156.88 60.53 162.86 83.12 177.52 65.1 226.91 109.71 198.17 60.53 227.19 67.68 210.95 48.57 237.34 41.17 210.95 33.77 225.92 14.03 198.17 21.8 192.92 0 177.52 17.24 160.78 0 156.88 21.8 129.13 14.66 144.1 33.77 117.7 41.17" fill="#d560a2"/></g></g></svg>