<?xml version="1.0" encoding="UTF-8"?><svg id="Ebene_1" xmlns="http://www.w3.org/2000/svg" viewBox="0 0 133.94 133"><g id="Eiswürfel"><g><rect x="24.35" y="0" width="109.58" height="109.58" rx="21.16" ry="21.16" fill="#63b5e7"/><rect x="23.42" y=".94" width="109.58" height="109.58" rx="21.16" ry="21.16" fill="#63b5e7"/><rect x="22.48" y="1.87" width="109.58" height="109.58" rx="21.16" ry="21.16" fill="#63b5e7"/><rect x="21.54" y="1.87" width="109.58" height="109.58" rx="21.16" ry="21.16" fill="#63b5e7"/><rect x="21.54" y="2.81" width="109.58" height="109.58" rx="21.16" ry="21.16" fill="#63b5e7"/><rect x="20.61" y="3.75" width="109.58" height="109.58" rx="21.16" ry="21.16" fill="#63b5e7"/><rect x="19.67" y="3.75" width="109.58" height="109.58" rx="21.16" ry="21.16" fill="#63b5e7"/><rect x="19.67" y="4.68" width="109.58" height="109.58" rx="21.16" ry="21.16" fill="#63b5e7"/><rect x="18.73" y="5.62" width="109.58" height="109.58" rx="21.16" ry="21.16" fill="#63b5e7"/><rect x="17.8" y="5.62" width="109.58" height="109.58" rx="21.16" ry="21.16" fill="#63b5e7"/><rect x="16.86" y="6.56" width="109.58" height="109.58" rx="21.16" ry="21.16" fill="#63b5e7"/><rect x="16.86" y="7.49" width="109.58" height="109.58" rx="21.16" ry="21.16" fill="#63b5e7"/><rect x="15.92" y="8.43" width="109.58" height="109.58" rx="21.16" ry="21.16" fill="#63b5e7"/><rect x="14.99" y="8.43" width="109.58" height="109.58" rx="21.16" ry="21.16" fill="#63b5e7"/><rect x="14.99" y="9.37" width="109.58" height="109.58" rx="21.16" ry="21.16" fill="#63b5e7"/><rect x="14.05" y="10.3" width="109.58" height="109.58" rx="21.16" ry="21.16" fill="#63b5e7"/><rect x="13.11" y="10.3" width="109.58" height="109.58" rx="21.16" ry="21.16" fill="#63b5e7"/><rect x="12.18" y="11.24" width="109.58" height="109.58" rx="21.16" ry="21.16" fill="#63b5e7"/><rect x="12.18" y="12.18" width="109.58" height="109.58" rx="21.16" ry="21.16" fill="#63b5e7"/><rect x="11.24" y="13.11" width="109.58" height="109.58" rx="21.16" ry="21.16" fill="#63b5e7"/><rect x="10.3" y="13.11" width="109.58" height="109.58" rx="21.16" ry="21.16" fill="#63b5e7"/><rect x="10.3" y="14.05" width="109.58" height="109.58" rx="21.16" ry="21.16" fill="#63b5e7"/><rect x="9.37" y="14.99" width="109.58" height="109.58" rx="21.16" ry="21.16" fill="#63b5e7"/><rect x="8.43" y="14.99" width="109.58" height="109.58" rx="21.16" ry="21.16" fill="#63b5e7"/><rect x="7.49" y="15.92" width="109.58" height="109.58" rx="21.16" ry="21.16" fill="#63b5e7"/><rect x="7.49" y="16.86" width="109.58" height="109.58" rx="21.16" ry="21.16" fill="#63b5e7"/><rect x="6.56" y="17.8" width="109.58" height="109.58" rx="21.16" ry="21.16" fill="#63b5e7"/><rect x="5.62" y="17.8" width="109.58" height="109.58" rx="21.16" ry="21.16" fill="#63b5e7"/><rect x="5.62" y="18.73" width="109.58" height="109.58" rx="21.16" ry="21.16" fill="#63b5e7"/><rect x="4.68" y="19.67" width="109.58" height="109.58" rx="21.16" ry="21.16" fill="#63b5e7"/><rect x="3.75" y="19.67" width="109.58" height="109.58" rx="21.16" ry="21.16" fill="#63b5e7"/><rect x="2.81" y="20.61" width="109.58" height="109.58" rx="21.16" ry="21.16" fill="#63b5e7"/><rect x="2.81" y="21.54" width="109.58" height="109.58" rx="21.16" ry="21.16" fill="#63b5e7"/><rect x="1.87" y="22.48" width="109.58" height="109.58" rx="21.16" ry="21.16" fill="#63b5e7"/><rect x=".94" y="22.48" width="109.58" height="109.58" rx="21.16" ry="21.16" fill="#63b5e7"/></g><rect y="23.42" width="109.58" height="109.58" rx="21.16" ry="21.16" fill="#63b5e7"/><line x1="22.95" y1="36.06" x2="81.02" y2="36.06" fill="none" stroke="#4f92e7" stroke-linecap="round" stroke-miterlimit="10" stroke-width="6.41"/><line x1="96.94" y1="110.99" x2="96.94" y2="54.79" fill="none" stroke="#4f92e7" stroke-linecap="round" stroke-miterlimit="10" stroke-width="6.41"/><line x1="104.86" y1="27.86" x2="118.76" y2="13.95" fill="none" stroke="#4f92e7" stroke-linecap="round" stroke-miterlimit="10" stroke-width="6.41"/></g></svg>