<?xml version="1.0" encoding="UTF-8"?><svg id="Panel_Sprechblasen" xmlns="http://www.w3.org/2000/svg" viewBox="0 0 850 550"><g id="Panel_Gruppe"><rect id="Panel" x="22.5" y="60.5" width="805" height="429" rx="156.32" ry="156.32" fill="#f4a7b9"/><g id="Sprechblasen"><path d="M148.89,204.32c0,6.14-22.4,11.12-50.04,11.12-27.64,0-50.04-4.98-50.04-11.12,0-6.14,22.4-11.12,50.04-11.12,27.64,0,50.04,4.98,50.04,11.12Z" fill="#d560a2"/><polygon points="170.34 92.83 138.99 101.61 155.25 125.07 123.8 115.83 116.7 142.65 99.28 121.25 40.62 174.24 74.76 115.83 40.28 124.31 59.58 101.61 28.22 92.83 59.58 84.04 41.8 60.58 74.76 69.82 80.99 43.92 99.28 64.4 119.17 43.92 123.8 69.82 156.77 61.34 138.99 84.04 170.34 92.83" fill="#d560a2"/><path d="M288.39,190.17c0,6.14-22.4,11.12-50.04,11.12-27.64,0-50.04-4.98-50.04-11.12,0-6.14,22.4-11.12,50.04-11.12,27.64,0,50.04,4.98,50.04,11.12Z" fill="#d560a2"/><polygon points="168.04 50.81 199.39 59.6 183.13 83.06 214.58 73.82 221.68 100.64 239.1 79.24 297.76 132.23 263.62 73.82 298.1 82.3 278.8 59.6 310.16 50.81 278.8 42.02 296.58 18.57 263.62 27.81 257.39 1.91 239.1 22.39 219.21 1.91 214.58 27.81 181.61 19.33 199.39 42.03 168.04 50.81" fill="#d560a2"/></g></g></svg>