<?xml version="1.0" encoding="UTF-8"?><svg id="Ebene_2" xmlns="http://www.w3.org/2000/svg" viewBox="0 0 786.28 320"><g id="Bier"><g id="Sprechblasen"><ellipse cx="59.52" cy="310.63" rx="42.17" ry="9.37" fill="#f4a7b9"/><path d="m219.26,298.7c0,5.18-18.88,9.37-42.17,9.37-23.29,0-42.17-4.2-42.17-9.37,0-5.18,18.88-9.37,42.17-9.37s42.17,4.2,42.17,9.37Z" fill="#f4a7b9"/><polygon points="119.77 216.66 93.35 224.07 107.05 243.84 80.55 236.05 74.56 258.66 59.89 240.62 10.44 285.28 39.22 236.05 10.16 243.2 26.42 224.07 0 216.66 26.42 209.26 11.44 189.49 39.22 197.28 44.47 175.45 59.89 192.71 76.65 175.45 80.55 197.28 108.33 190.13 93.35 209.26 119.77 216.66" fill="#d560a2"/><polygon points="117.83 181.26 144.26 188.66 130.55 208.43 157.05 200.64 163.04 223.25 177.72 205.21 227.16 249.87 198.38 200.64 227.44 207.79 211.18 188.66 237.6 181.26 211.18 173.85 226.16 154.08 198.38 161.87 193.13 140.04 177.72 157.3 160.95 140.04 157.05 161.87 129.27 154.72 144.26 173.85 117.83 181.26" fill="#d560a2"/></g></g><g id="Eiswürfel"><rect x="442.95" y="201.94" width="97.28" height="97.28" rx="18.78" ry="18.78" fill="#63b5e7"/><rect x="442.12" y="202.77" width="97.28" height="97.28" rx="18.78" ry="18.78" fill="#63b5e7"/><rect x="441.29" y="203.6" width="97.28" height="97.28" rx="18.78" ry="18.78" fill="#63b5e7"/><rect x="440.46" y="203.6" width="97.28" height="97.28" rx="18.78" ry="18.78" fill="#63b5e7"/><rect x="440.46" y="204.43" width="97.28" height="97.28" rx="18.78" ry="18.78" fill="#63b5e7"/><rect x="439.63" y="205.27" width="97.28" height="97.28" rx="18.78" ry="18.78" fill="#63b5e7"/><rect x="438.8" y="205.27" width="97.28" height="97.28" rx="18.78" ry="18.78" fill="#63b5e7"/><rect x="438.8" y="206.1" width="97.28" height="97.28" rx="18.78" ry="18.78" fill="#63b5e7"/><rect x="437.96" y="206.93" width="97.28" height="97.28" rx="18.78" ry="18.78" fill="#63b5e7"/><rect x="437.13" y="206.93" width="97.28" height="97.28" rx="18.78" ry="18.78" fill="#63b5e7"/><rect x="436.3" y="207.76" width="97.28" height="97.28" rx="18.78" ry="18.78" fill="#63b5e7"/><rect x="436.3" y="208.59" width="97.28" height="97.28" rx="18.78" ry="18.78" fill="#63b5e7"/><rect x="435.47" y="209.42" width="97.28" height="97.28" rx="18.78" ry="18.78" fill="#63b5e7"/><rect x="434.64" y="209.42" width="97.28" height="97.28" rx="18.78" ry="18.78" fill="#63b5e7"/><rect x="434.64" y="210.25" width="97.28" height="97.28" rx="18.78" ry="18.78" fill="#63b5e7"/><rect x="433.81" y="211.09" width="97.28" height="97.28" rx="18.78" ry="18.78" fill="#63b5e7"/><rect x="432.98" y="211.09" width="97.28" height="97.28" rx="18.78" ry="18.78" fill="#63b5e7"/><rect x="432.14" y="211.92" width="97.28" height="97.28" rx="18.78" ry="18.78" fill="#63b5e7"/><rect x="432.14" y="212.75" width="97.28" height="97.28" rx="18.78" ry="18.78" fill="#63b5e7"/><rect x="431.31" y="213.58" width="97.28" height="97.28" rx="18.78" ry="18.78" fill="#63b5e7"/><rect x="430.48" y="213.58" width="97.28" height="97.28" rx="18.78" ry="18.78" fill="#63b5e7"/><rect x="430.48" y="214.41" width="97.28" height="97.28" rx="18.78" ry="18.78" fill="#63b5e7"/><rect x="429.65" y="215.24" width="97.28" height="97.28" rx="18.78" ry="18.78" fill="#63b5e7"/><rect x="428.82" y="215.24" width="97.28" height="97.28" rx="18.78" ry="18.78" fill="#63b5e7"/><rect x="427.99" y="216.07" width="97.28" height="97.28" rx="18.78" ry="18.78" fill="#63b5e7"/><rect x="427.99" y="216.9" width="97.28" height="97.28" rx="18.78" ry="18.78" fill="#63b5e7"/><rect x="427.16" y="217.74" width="97.28" height="97.28" rx="18.78" ry="18.78" fill="#63b5e7"/><rect x="426.32" y="217.74" width="97.28" height="97.28" rx="18.78" ry="18.78" fill="#63b5e7"/><rect x="426.32" y="218.57" width="97.28" height="97.28" rx="18.78" ry="18.78" fill="#63b5e7"/><rect x="425.49" y="219.4" width="97.28" height="97.28" rx="18.78" ry="18.78" fill="#63b5e7"/><rect x="424.66" y="219.4" width="97.28" height="97.28" rx="18.78" ry="18.78" fill="#63b5e7"/><rect x="423.83" y="220.23" width="97.28" height="97.28" rx="18.78" ry="18.78" fill="#63b5e7"/><rect x="423.83" y="221.06" width="97.28" height="97.28" rx="18.78" ry="18.78" fill="#63b5e7"/><rect x="423" y="221.89" width="97.28" height="97.28" rx="18.78" ry="18.78" fill="#63b5e7"/><rect x="422.17" y="221.89" width="97.28" height="97.28" rx="18.78" ry="18.78" fill="#63b5e7"/><rect x="421.34" y="222.72" width="97.28" height="97.28" rx="18.78" ry="18.78" fill="#65b4e4"/><line x1="441.71" y1="233.95" x2="493.25" y2="233.95" fill="none" stroke="#4f92e7" stroke-linecap="round" stroke-miterlimit="10" stroke-width="5.69"/><line x1="507.39" y1="300.46" x2="507.39" y2="250.58" fill="none" stroke="#4f92e7" stroke-linecap="round" stroke-miterlimit="10" stroke-width="5.69"/><line x1="514.42" y1="226.67" x2="526.76" y2="214.32" fill="none" stroke="#4f92e7" stroke-linecap="round" stroke-miterlimit="10" stroke-width="5.69"/></g><g id="Bier-2"><path d="m378.08,255.2c-.21,12.46-22.09,22.54-49.07,22.54s-48.86-10.07-49.07-22.54v32.94h.03c0,.21-.03.42-.03.64,0,17.25,21.97,31.23,49.07,31.23s49.07-13.98,49.07-31.23c0-.21-.02-.42-.03-.64h.03v-32.94Z" fill="#ffab22"/><path d="m279.94,155.43c.21,11.71,22.09,21.18,49.07,21.18s48.86-9.47,49.07-21.18v-5.58h0c0-.16,0-.31,0-.47,0-26.45-10.49-49.43-25.91-61.12l-6.82-76.54c1.04-.58,1.62-1.21,1.62-1.89,0,0,0-.02,0-.03,0,0,0-.02,0-.03s0-.02,0-.03c0,0,0-.02,0-.03s0-.02,0-.03c0,0,0-.02,0-.03s0-.02,0-.03c0,0,0-.02,0-.03s0-.02,0-.03c0,0,0-.02,0-.03s0-.02,0-.03c0,0,0-.02,0-.03s0-.02,0-.03c0,0,0-.02,0-.03s0-.02,0-.03c0,0,0-.02,0-.03s0-.02,0-.03c0,0,0-.02,0-.03s0-.02,0-.03c0,0,0-.02,0-.03s0-.02,0-.03c0,0,0-.02,0-.03s0-.02,0-.03c0,0,0-.02,0-.03s0-.02,0-.03c0,0,0-.02,0-.03s0-.02,0-.03c0,0,0-.02,0-.03s0-.02,0-.03c0,0,0-.02,0-.03s0-.02,0-.03c0,0,0-.02,0-.03s0-.02,0-.03c0,0,0-.02,0-.03s0-.02,0-.03c0,0,0-.02,0-.03s0-.02,0-.03c0,0,0-.02,0-.03s0-.02,0-.03c0,0,0-.02,0-.03s0-.02,0-.03c0,0,0-.02,0-.03s0-.02,0-.03c0,0,0-.02,0-.03s0-.02,0-.03c0,0,0-.02,0-.03s0-.02,0-.03c0,0,0-.02,0-.03s0-.02,0-.03c0,0,0-.02,0-.03s0-.02,0-.03c0,0,0-.02,0-.03s0-.02,0-.03c0,0,0-.02,0-.03s0-.02,0-.03c0,0,0-.02,0-.03s0-.02,0-.03c0,0,0-.02,0-.03s0-.02,0-.03c0,0,0-.02,0-.03s0-.02,0-.03c0,0,0-.02,0-.03s0-.02,0-.03c0,0,0-.02,0-.03s0-.02,0-.03c0,0,0-.02,0-.03s0-.02,0-.03c0,0,0-.02,0-.03s0-.02,0-.03c0,0,0-.02,0-.03s0-.02,0-.03c0,0,0-.02,0-.03s0-.02,0-.03c0,0,0-.02,0-.03s0-.02,0-.03c0,0,0-.02,0-.03s0-.02,0-.03c0,0,0-.02,0-.03s0-.02,0-.03c0,0,0-.02,0-.03s0-.02,0-.03c0,0,0-.02,0-.03s0-.02,0-.03c0,0,0-.02,0-.03s0-.02,0-.03c0,0,0-.02,0-.03s0-.02,0-.03c0,0,0-.02,0-.03s0-.02,0-.03c0,0,0-.02,0-.03s0-.02,0-.03c0,0,0-.02,0-.03s0-.02,0-.03c0,0,0-.02,0-.03s0-.02,0-.03c0,0,0-.02,0-.03s0-.02,0-.03c0,0,0-.02,0-.03s0-.02,0-.03c0,0,0-.02,0-.03s0-.02,0-.03c0,0,0-.02,0-.03s0-.02,0-.03c0,0,0-.02,0-.03s0-.02,0-.03c0,0,0-.02,0-.03s0-.02,0-.03c0,0,0-.02,0-.03s0-.02,0-.03c0,0,0-.02,0-.03s0-.02,0-.03c0,0,0-.02,0-.03s0-.02,0-.03c0,0,0-.02,0-.03s0-.02,0-.03c0,0,0-.02,0-.03s0-.02,0-.03c0,0,0-.02,0-.03s0-.02,0-.03c0,0,0-.02,0-.03s0-.02,0-.03c0,0,0-.02,0-.03s0-.02,0-.03c0,0,0-.02,0-.03s0-.02,0-.03c0,0,0-.02,0-.03s0-.02,0-.03c0,0,0-.02,0-.03s0-.02,0-.03c0,0,0-.02,0-.03s0-.02,0-.03c0,0,0-.02,0-.03s0-.02,0-.03c0,0,0-.02,0-.03s0-.02,0-.03c0,0,0-.02,0-.03s0-.02,0-.03c0,0,0-.02,0-.03s0-.02,0-.03c0,0,0-.02,0-.03s0-.02,0-.03c0,0,0-.02,0-.03s0-.02,0-.03c0,0,0-.02,0-.03s0-.02,0-.03c0,0,0-.02,0-.03s0-.02,0-.03c0,0,0-.02,0-.03s0-.02,0-.03c0,0,0-.02,0-.03s0-.02,0-.03c0,0,0-.02,0-.03s0-.02,0-.03c0,0,0-.02,0-.03s0-.02,0-.03c0,0,0-.02,0-.03s0-.02,0-.03c0,0,0-.02,0-.03s0-.02,0-.03c0,0,0-.02,0-.03s0-.02,0-.03c0,0,0-.02,0-.03s0-.02,0-.03c0,0,0-.02,0-.03s0-.02,0-.03c0,0,0-.02,0-.03s0-.02,0-.03c0,0,0-.02,0-.03s0-.02,0-.03c0,0,0-.02,0-.03s0-.02,0-.03c0,0,0-.02,0-.03s0-.02,0-.03c0,0,0-.02,0-.03s0-.02,0-.03c0,0,0-.02,0-.03s0-.02,0-.03c0,0,0-.02,0-.03s0-.02,0-.03c0,0,0-.02,0-.03s0-.02,0-.03c0,0,0-.02,0-.03s0-.02,0-.03c0,0,0-.02,0-.03s0-.02,0-.03c0,0,0-.02,0-.03s0-.02,0-.03c0,0,0-.02,0-.03s0-.02,0-.03c0,0,0-.02,0-.03,0-2.52-8.1-4.56-18.08-4.56s-18.08,2.04-18.08,4.56c0,0,0,.02,0,.03,0,0,0,.02,0,.03s0,.02,0,.03c0,0,0,.02,0,.03s0,.02,0,.03c0,0,0,.02,0,.03s0,.02,0,.03c0,0,0,.02,0,.03s0,.02,0,.03c0,0,0,.02,0,.03s0,.02,0,.03c0,0,0,.02,0,.03s0,.02,0,.03c0,0,0,.02,0,.03s0,.02,0,.03c0,0,0,.02,0,.03s0,.02,0,.03c0,0,0,.02,0,.03s0,.02,0,.03c0,0,0,.02,0,.03s0,.02,0,.03c0,0,0,.02,0,.03s0,.02,0,.03c0,0,0,.02,0,.03s0,.02,0,.03c0,0,0,.02,0,.03s0,.02,0,.03c0,0,0,.02,0,.03s0,.02,0,.03c0,0,0,.02,0,.03s0,.02,0,.03c0,0,0,.02,0,.03s0,.02,0,.03c0,0,0,.02,0,.03s0,.02,0,.03c0,0,0,.02,0,.03s0,.02,0,.03c0,0,0,.02,0,.03s0,.02,0,.03c0,0,0,.02,0,.03s0,.02,0,.03c0,0,0,.02,0,.03s0,.02,0,.03c0,0,0,.02,0,.03s0,.02,0,.03c0,0,0,.02,0,.03s0,.02,0,.03c0,0,0,.02,0,.03s0,.02,0,.03c0,0,0,.02,0,.03s0,.02,0,.03c0,0,0,.02,0,.03s0,.02,0,.03c0,0,0,.02,0,.03s0,.02,0,.03c0,0,0,.02,0,.03s0,.02,0,.03c0,0,0,.02,0,.03s0,.02,0,.03c0,0,0,.02,0,.03s0,.02,0,.03c0,0,0,.02,0,.03s0,.02,0,.03c0,0,0,.02,0,.03s0,.02,0,.03c0,0,0,.02,0,.03s0,.02,0,.03c0,0,0,.02,0,.03s0,.02,0,.03c0,0,0,.02,0,.03s0,.02,0,.03c0,0,0,.02,0,.03s0,.02,0,.03c0,0,0,.02,0,.03s0,.02,0,.03c0,0,0,.02,0,.03s0,.02,0,.03c0,0,0,.02,0,.03s0,.02,0,.03c0,0,0,.02,0,.03s0,.02,0,.03c0,0,0,.02,0,.03s0,.02,0,.03c0,0,0,.02,0,.03s0,.02,0,.03c0,0,0,.02,0,.03s0,.02,0,.03c0,0,0,.02,0,.03s0,.02,0,.03c0,0,0,.02,0,.03s0,.02,0,.03c0,0,0,.02,0,.03s0,.02,0,.03c0,0,0,.02,0,.03s0,.02,0,.03c0,0,0,.02,0,.03s0,.02,0,.03c0,0,0,.02,0,.03s0,.02,0,.03c0,0,0,.02,0,.03s0,.02,0,.03c0,0,0,.02,0,.03s0,.02,0,.03c0,0,0,.02,0,.03s0,.02,0,.03c0,0,0,.02,0,.03s0,.02,0,.03c0,0,0,.02,0,.03s0,.02,0,.03c0,0,0,.02,0,.03s0,.02,0,.03c0,0,0,.02,0,.03s0,.02,0,.03c0,0,0,.02,0,.03s0,.02,0,.03c0,0,0,.02,0,.03s0,.02,0,.03c0,0,0,.02,0,.03s0,.02,0,.03c0,0,0,.02,0,.03s0,.02,0,.03c0,0,0,.02,0,.03s0,.02,0,.03c0,0,0,.02,0,.03s0,.02,0,.03c0,0,0,.02,0,.03s0,.02,0,.03c0,0,0,.02,0,.03s0,.02,0,.03c0,0,0,.02,0,.03s0,.02,0,.03c0,0,0,.02,0,.03s0,.02,0,.03c0,0,0,.02,0,.03s0,.02,0,.03c0,0,0,.02,0,.03s0,.02,0,.03c0,0,0,.02,0,.03s0,.02,0,.03c0,0,0,.02,0,.03s0,.02,0,.03c0,0,0,.02,0,.03s0,.02,0,.03c0,0,0,.02,0,.03s0,.02,0,.03c0,0,0,.02,0,.03s0,.02,0,.03c0,0,0,.02,0,.03s0,.02,0,.03c0,0,0,.02,0,.03s0,.02,0,.03c0,0,0,.02,0,.03s0,.02,0,.03c0,0,0,.02,0,.03s0,.02,0,.03c0,0,0,.02,0,.03s0,.02,0,.03c0,0,0,.02,0,.03s0,.02,0,.03c0,0,0,.02,0,.03s0,.02,0,.03c0,0,0,.02,0,.03s0,.02,0,.03c0,0,0,.02,0,.03s0,.02,0,.03c0,0,0,.02,0,.03s0,.02,0,.03c0,0,0,.02,0,.03s0,.02,0,.03c0,0,0,.02,0,.03s0,.02,0,.03c0,0,0,.02,0,.03s0,.02,0,.03c0,0,0,.02,0,.03s0,.02,0,.03c0,0,0,.02,0,.03s0,.02,0,.03c0,0,0,.02,0,.03s0,.02,0,.03c0,0,0,.02,0,.03s0,.02,0,.03c0,0,0,.02,0,.03s0,.02,0,.03c0,0,0,.02,0,.03s0,.02,0,.03c0,0,0,.02,0,.03s0,.02,0,.03c0,0,0,.02,0,.03s0,.02,0,.03c0,0,0,.02,0,.03,0,.72.67,1.4,1.85,2.01l-6.81,76.42c-15.42,11.69-25.91,34.67-25.91,61.12v6.05Z" fill="#ffab22"/><g id="Etikett"><path d="m279.93,255.02c0-.06,0-.12,0-.18v-99.42c.21,11.71,22.09,21.18,49.07,21.18,26.98,0,48.86-9.47,49.07-21.18v99.42c0,.06,0,.12,0,.18,0,12.55-21.97,22.72-49.08,22.72-27.11,0-49.08-10.17-49.08-22.72Z" fill="#e65c38"/></g></g><g id="Limette"><g id="Schale"><path d="m588.85,165.24c-25.34,54.52-1.68,119.26,52.84,144.59,54.52,25.34,119.26,1.68,144.59-52.84l-197.43-91.76Z" fill="#458958"/><path d="m657.21,276.44c-46.48-21.6-72.98-67.38-68.26-111.16l197.24,91.67c-30.43,31.84-82.5,41.09-128.98,19.49Z" fill="#8cc63f"/></g><g id="Zwischenräume"><path d="m674.91,205.23l-74.52,17.7c1.07,2.06,2.2,4.1,3.4,6.1l80.51-19.12-29.6,65.31c.83.41,1.65.82,2.5,1.22,1.2.56,2.4,1.08,3.61,1.6l29.54-65.19,37.2,73.91c2.31-.36,4.6-.81,6.87-1.32l-34.53-68.6-24.99-11.61Z" fill="#458958"/></g></g></svg>