<?xml version="1.0" encoding="UTF-8"?>
<svg id="Logo" xmlns="http://www.w3.org/2000/svg" viewBox="0 0 800 800">
  <defs>
    <style>
      .cls-1 {
        fill: #4a855d;
      }
    </style>
  </defs>
  <g id="Logo_Gruppe" data-name="Logo Gruppe">
    <g id="Logo_Gruppe_ohne_Schatten_" data-name="Logo Gruppe (ohne Schatten)">
      <g id="Ring">
        <path class="cls-1" d="M792.85,380.98c-30.88-35.22-38.37-70.54-23.36-113.29,4.89-13.93-1.33-29.27-14.58-35.77-41.18-20.21-61.3-50.09-64.03-95.53-.88-14.7-12.57-26.38-27.27-27.27-45.44-2.74-75.32-22.85-95.53-64.03-6.5-13.25-21.84-19.48-35.77-14.59-42.75,15.01-78.08,7.52-113.29-23.36-10.87-9.53-27.16-9.53-38.03,0-35.22,30.88-70.54,38.37-113.29,23.36-13.93-4.89-29.27,1.33-35.77,14.59-20.21,41.18-50.09,61.3-95.53,64.03-14.7,.88-26.38,12.57-27.27,27.27-2.74,45.44-22.85,75.32-64.03,95.53-13.25,6.5-19.48,21.84-14.58,35.77,15.01,42.75,7.52,78.08-23.36,113.29-9.53,10.87-9.53,27.16,0,38.03,30.88,35.22,38.37,70.54,23.36,113.29-4.89,13.93,1.33,29.27,14.58,35.77,41.18,20.21,61.3,50.09,64.03,95.53,.88,14.7,12.57,26.38,27.27,27.27,45.44,2.74,75.32,22.85,95.53,64.03,6.5,13.25,21.84,19.48,35.77,14.59,42.75-15.01,78.08-7.52,113.29,23.36,10.87,9.53,27.16,9.53,38.03,0,35.22-30.88,70.54-38.37,113.29-23.36,13.93,4.89,29.26-1.33,35.77-14.58,20.21-41.18,50.09-61.3,95.53-64.03,14.7-.88,26.38-12.57,27.27-27.27,2.74-45.44,22.85-75.32,64.03-95.53,13.25-6.5,19.48-21.84,14.58-35.77-15.01-42.75-7.52-78.08,23.36-113.29,9.53-10.87,9.53-27.16,0-38.03Zm-392.85,350.92c-183.31,0-331.91-148.6-331.91-331.91S216.69,68.09,400,68.09s331.91,148.6,331.91,331.91-148.6,331.91-331.91,331.91Z"/>
      </g>
      <g id="Buchstaben">
        <path class="cls-1" d="M252.39,331.67c-2.64,6.51-5.99,12.61-10.61,17.69-7.86,8.64-20.22,13.63-30.77,9.38-24.98-10.07,1.98-43.37-17.8-53.28-24.44-12.24-26.05,32.53-34.6,44.78-4.81,6.88-12.18,12.3-20.23,12.33-8.57,.03-16.45-6.22-20.33-14.33-3.88-8.11-4.21-17.73-2.58-26.68,5.77-31.69,24.38-61.38,42.79-86.47,13.14-17.9,27.91-34.27,43.97-48.69,8.08-7.26,16.5-14.26,25.29-20.31,12.41-8.54,30.15-10.8,36,5.79,15.94,45.24,6.27,100.95-6.44,145.71-1.35,4.75-2.85,9.51-4.71,14.08Zm-45.27-100.27c-7.53,6.75-13.88,15.78-9.84,24.41,1.23,2.63,3.49,4.95,6.05,6.69,9.94,6.76,18.72,3.68,22.61-4.03,2.8-5.53,4.53-11.44,5.23-17.74,.49-4.38,1.85-12.49-2.37-16.86-7.76-8.04-17.59,3.88-21.68,7.54Z"/>
        <path class="cls-1" d="M296.69,393.76c-5.85,4.36-14.23,4.51-21.05-.33-11.59-8.22-11.64-21.82-10.59-33.94,1.37-15.83,3.48-31.61,6.31-47.25,2.41-13.33,3.47-24.37,9.5-36.79,2.6-5.35,7-10.3,13.01-11.84,14.31-3.66,26.69,12.49,34.42,21.89,4.19,5.09,7.95,10.48,11.7,15.87,4.45,6.39,8.62,13.1,13.41,19.27,4.11,5.29,9.24,5,8.78-2.27-.9-14.41-5.6-29.4-11.03-42.84-5.07-12.56-13.34-24.61-12.83-38.51,.41-11.21,11.81-21.12,23.51-15.87,11.3,5.07,16.49,18.15,20.15,28.55,10.5,29.84,17.88,61,18.4,92.49,.23,13.75,.96,28.61-7.15,40.43-6.45,9.39-19.09,14.06-30.14,8.4-11.32-5.8-18.45-21.34-24.07-31.58-2.79-5.1-21.1-43.73-29.57-26.23-3.94,8.14-2.59,18.36-2.76,27.11-.18,9.21-.77,18.72-4.87,27.2-1.26,2.6-3.02,4.7-5.12,6.26Z"/>
        <path class="cls-1" d="M357.09,173.83c-24.03,.74-52.55,8.99-58.78-16.6-8.43-34.65,52.84-40.47,74.04-42.88,28.61-3.25,57.68-2.4,86.05,2.53,16.34,2.84,58.15,7.44,53.51,32.84-3.5,19.16-27.79,18.2-42.39,19.98-24.56,3-26.12,27.49-24.63,47.35,2.32,30.93,10.5,61.68,22.86,90.09,6.06,13.93,16.33,29.36,6.81,44.47-5.14,8.16-15.01,13.41-24.61,13.45-11.35,.05-18.94-5.2-24.77-14.88-11.31-18.76-14.11-43.51-16.72-64.88-2.8-22.89-3.81-45.94-5.58-68.92-1.26-16.36-.53-32.82-20.1-40.18-7.81-2.94-17.47-2.62-25.67-2.37Z"/>
        <path class="cls-1" d="M493.65,179.46c31.98-19.29,75.64,1.27,82.21,34.92,6.67,34.17-9.85,93.55-55.48,94.75-60.01,1.59-69.82-87.22-38.12-120.52,3.32-3.49,7.12-6.58,11.39-9.16Zm26.75,69.87c6.13,.31,12.14-3.48,15.49-8.25,4.83-6.9,6.51-18.48,.33-25.08-5.31-5.67-16.3-8.07-23.15-3.49-10.62,7.1-9.46,30.66,2.81,35.8,1.49,.62,3.01,.95,4.53,1.03Z"/>
        <path class="cls-1" d="M575.67,389.42c-7.49,5.38-17.79,4.94-25.6-2.32-5.37-4.99-6.49-12.59-5.77-19.62,.95-9.26,3.2-18.81,5.31-27.88,2.16-9.28,4.7-18.52,8.1-27.43,4.01-10.52,10.04-24.33,22.64-26.24,10.59-1.6,20.43,5.79,27.7,12.11,9.04,7.87,17.14,16.66,26.32,24.42,1.11,.94,2.3,1.89,3.76,2.16,7.84,1.44,.97-12.37-.22-14.86-7.07-14.78-17.72-27.65-27.54-40.88-8.01-10.8-19.03-26.31-10.42-39.82,5.1-8.01,16.96-9.1,24.78-4.52,11.89,6.97,21.88,20.69,28.81,31.76,11.17,17.85,21.74,36.26,28.72,56.09,4.32,12.26,7.89,25,8.83,38,1.1,15.33-2.81,40.1-24.82,38.09-19.18-1.75-33.84-20.51-45.96-32.86-5.11-5.21-12.26-15.98-20.16-16.79-6.18-.63-8.93,6.31-9.99,11.26-2.28,10.65-2.76,22.18-8.04,31.94-1.68,3.11-3.89,5.59-6.42,7.4Z"/>
        <path class="cls-1" d="M149.16,482.77c9.49-3.11,21.58,.88,24.82,10.15,1.59,4.54,1,9.59,2.42,14.18,1.41,4.57,4.98,8.56,9.59,10.12,4.61,1.56,10.16,.45,13.47-3.06,2-2.11,3.12-4.93,3.51-7.78,1.44-10.58-6.82-20.39-16.48-25.29-17.94-9.11-39.46-8.67-57.4-18.08-14.28-7.49-22.5-20.62-24.17-36.34-.85-7.98,.61-16.37,5.15-23.05,4.13-6.08,10.51-10.38,17.17-13.65,20.76-10.18,46.29-11.07,68.22-4.15,10.81,3.41,21.85,8.97,29.8,17.07,6.95,7.08,15.9,17.5,15.07,27.83-.82,10.25-10.09,18.99-20.51,20.14-10.43,1.15-21.07-4.87-25.98-13.95-5.1-9.42-15.17-21.35-28.1-14.43-3.96,2.12-5.86,6.97-5.27,11.35,1.85,13.71,21.98,20.54,31.33,23.72,47.77,16.24,73.67,37.01,74.3,76.29,.37,22.91-16.76,45.35-39.36,52.66-22.6,7.31-48.65,.74-66.61-14.55-20.03-17.05-48.28-70.85-13.49-88.15,.82-.41,1.67-.75,2.54-1.04Z"/>
        <path class="cls-1" d="M290.09,643.36c-1.04,3.84-2.39,7.41-4.5,10.34-6.76,9.42-23.27,7.48-31.62,1.49-15.27-10.94-12.14-27.58-6.53-42.46,7.1-18.84,14.11-37.75,21.12-56.64,8.56-23.08,13.72-47.32,23.44-69.98,6.47-15.11,24.02-35.81,41.81-23.11,11.78,8.41,17.85,25.33,23.47,38.15,6.56,14.97,11.41,30.56,15.02,46.48,11.55,50.92,15.93,88.51,15.06,120.72-.21,7.64-4.2,15.71-11.16,18.88-2.46,1.12-5.18,1.52-7.86,1.82-11.04,1.26-24.73-1.03-29.63-12.35-2-4.61-2.47-9.73-2.61-14.75-.45-15.65,3.52-47.25-18.14-50.9-7.86-1.32-16.01-.98-20.41,6.45-4.34,7.32-5.13,17.27-7.46,25.85Zm28.99-123.49c-5.77,2.19-7.9,11-9.28,15.64-1.99,6.66-2.85,13.46-2.56,20.44,.41,9.72,7.31,17.33,19.43,15.71,3.11-.42,6.2-1.57,8.45-3.56,7.38-6.54,5.24-18.85,1.04-29.49-2.28-5.78-6.46-22.77-17.08-18.73Z"/>
        <path class="cls-1" d="M453.35,593c-2.92-7.02-.81-15.96,5.68-21.2,8.58-6.93,21.19-8.61,31.54-10.84,3.3-.71,6.71-1.42,10.01-.72,24.26,5.19,30.85,35.5,32.82,56.72,2.91,31.35-10.64,53.08-39.78,65.62-32.21,13.86-69.7,6.27-86.5-28.52-21.36-44.24-27.75-127.55,23.69-153.08,16.14-8.01,45.32-15.3,61.37-2.83,8.65,6.72,11.54,21.39,4.9,30.59-4.76,6.59-13.52,8.31-21.46,8.62-12.89,.51-25.64,1.48-35.33,11.42-8.01,8.22-11.02,20.12-10.31,31.59,.94,15.07,7.82,40.34,23.41,45.25,6.53,2.06,13.61,1.25,20.15-.71,7.07-2.12,28.19-15.89,16.33-25.64-6.56-5.39-18.78,5.57-26.75,2.74-4.91-1.74-8.13-5.08-9.76-9.02Z"/>
        <path class="cls-1" d="M469.95,467.69c-3.43,.2-6.96,.44-10.54,.64-14.8,.84-39.32-.84-42.51-18.73-6.15-34.5,61.35-36.12,82.46-36.33,21.89-.22,115.53-8.49,111.55,29.47-1.92,18.36-21.63,19.62-35.1,18.95-11.56-.58-18.9,.2-20.13,12.46-2.58,25.58,10.72,42.44,18.33,65.19,6.92,20.69-.97,35.19-21.69,37.42-20.27,2.18-27.3-17.79-32.22-34.46-4.44-15.05-4.85-30.9-6.33-46.38-2.75-28.74-21.13-29.54-43.81-28.24Z"/>
        <path class="cls-1" d="M669.95,528.36c-10.76,21.65-33.84,61.73-63,50.05-33.57-13.45,.76-67.12,7.99-87.14,6.06-16.79,6.63-39.75,18.11-53.71,11.46-13.94,37.28-19.32,49.92-3.31,12.36,15.65,4.93,48.53-.87,65.3-2.56,7.39-6.71,17.85-12.15,28.8Zm-84.81,100.91c-1.47,1.03-2.92,1.95-4.28,2.73-7.72,4.46-18.94,4.89-24.85-3.37-4.32-6.05-7.6-16.79-6.1-24.19,1.46-7.19,6.25-13.29,12.22-16.83,5.87-3.48,12.91-4.65,19.51-3.22,5.39,1.16,12.12,7.38,15.14,12.28,1.45,2.35,2.46,4.84,3.06,7.48,2.29,10.15-6.56,19.4-14.7,25.11Z"/>
      </g>
    </g>
  </g>
</svg>