<?xml version="1.0" encoding="UTF-8"?>
<svg id="Logo" xmlns="http://www.w3.org/2000/svg" viewBox="0 0 800 800">
  <g id="Logo_Gruppe" data-name="Logo Gruppe">
    <g id="Logo_Gruppe_ohne_Schatten_" data-name="Logo Gruppe (ohne Schatten)">
      <g id="Ring">
        <path fill="#448958" class="cls-1" d="M792.85,380.98c-30.88-35.22-38.37-70.54-23.36-113.29,4.89-13.93-1.33-29.27-14.58-35.77-41.18-20.21-61.3-50.09-64.03-95.53-.88-14.7-12.57-26.38-27.27-27.27-45.44-2.74-75.32-22.85-95.53-64.03-6.5-13.25-21.84-19.48-35.77-14.59-42.75,15.01-78.08,7.52-113.29-23.36-10.87-9.53-27.16-9.53-38.03,0-35.22,30.88-70.54,38.37-113.29,23.36-13.93-4.89-29.27,1.33-35.77,14.59-20.21,41.18-50.09,61.3-95.53,64.03-14.7,.88-26.38,12.57-27.27,27.27-2.74,45.44-22.85,75.32-64.03,95.53-13.25,6.5-19.48,21.84-14.58,35.77,15.01,42.75,7.52,78.08-23.36,113.29-9.53,10.87-9.53,27.16,0,38.03,30.88,35.22,38.37,70.54,23.36,113.29-4.89,13.93,1.33,29.27,14.58,35.77,41.18,20.21,61.3,50.09,64.03,95.53,.88,14.7,12.57,26.38,27.27,27.27,45.44,2.74,75.32,22.85,95.53,64.03,6.5,13.25,21.84,19.48,35.77,14.59,42.75-15.01,78.08-7.52,113.29,23.36,10.87,9.53,27.16,9.53,38.03,0,35.22-30.88,70.54-38.37,113.29-23.36,13.93,4.89,29.26-1.33,35.77-14.58,20.21-41.18,50.09-61.3,95.53-64.03,14.7-.88,26.38-12.57,27.27-27.27,2.74-45.44,22.85-75.32,64.03-95.53,13.25-6.5,19.48-21.84,14.58-35.77-15.01-42.75-7.52-78.08,23.36-113.29,9.53-10.87,9.53-27.16,0-38.03Zm-392.85,350.92c-183.31,0-331.91-148.6-331.91-331.91S216.69,68.09,400,68.09s331.91,148.6,331.91,331.91-148.6,331.91-331.91,331.91Z"/>
      </g>
      
    </g>
  </g>
</svg>