<?xml version="1.0" encoding="UTF-8"?>
<svg id="Layer_1" xmlns="http://www.w3.org/2000/svg" version="1.1" viewBox="0 0 418.91 121">
  <!-- Generator: Adobe Illustrator 29.0.0, SVG Export Plug-In . SVG Version: 2.1.0 Build 186)  -->
  <g id="Logo_Gruppe">
    <g id="Logo_Gruppe_ohne_Schatten_">
      <g id="Ring">
        <path d="M119.92,57.62c-4.67-5.33-5.8-10.67-3.53-17.14.74-2.11-.2-4.43-2.21-5.41-6.23-3.06-9.27-7.58-9.68-14.45-.13-2.22-1.9-3.99-4.12-4.12-6.87-.41-11.39-3.46-14.45-9.68-.98-2-3.3-2.95-5.41-2.21-6.47,2.27-11.81,1.14-17.14-3.53-1.64-1.44-4.11-1.44-5.75,0-5.33,4.67-10.67,5.8-17.14,3.53-2.11-.74-4.43.2-5.41,2.21-3.06,6.23-7.58,9.27-14.45,9.68-2.22.13-3.99,1.9-4.12,4.12-.41,6.87-3.46,11.39-9.68,14.45-2,.98-2.95,3.3-2.21,5.41,2.27,6.47,1.14,11.81-3.53,17.14-1.44,1.64-1.44,4.11,0,5.75,4.67,5.33,5.8,10.67,3.53,17.14-.74,2.11.2,4.43,2.21,5.41,6.23,3.06,9.27,7.58,9.68,14.45.13,2.22,1.9,3.99,4.12,4.12,6.87.41,11.39,3.46,14.45,9.68.98,2,3.3,2.95,5.41,2.21,6.47-2.27,11.81-1.14,17.14,3.53,1.64,1.44,4.11,1.44,5.75,0,5.33-4.67,10.67-5.8,17.14-3.53,2.11.74,4.43-.2,5.41-2.21,3.06-6.23,7.58-9.27,14.45-9.68,2.22-.13,3.99-1.9,4.12-4.12.41-6.87,3.46-11.39,9.68-14.45,2-.98,2.95-3.3,2.21-5.41-2.27-6.47-1.14-11.81,3.53-17.14,1.44-1.64,1.44-4.11,0-5.75h0ZM60.5,110.7c-27.73,0-50.2-22.48-50.2-50.2S32.77,10.3,60.5,10.3s50.2,22.48,50.2,50.2-22.48,50.2-50.2,50.2h0Z"/>
      </g>
      <g id="Buchstaben">
        <path d="M38.17,50.17c-.4.98-.91,1.91-1.6,2.68-1.19,1.31-3.06,2.06-4.65,1.42-3.78-1.52.3-6.56-2.69-8.06-3.7-1.85-3.94,4.92-5.23,6.77-.73,1.04-1.84,1.86-3.06,1.86-1.3,0-2.49-.94-3.07-2.17-.59-1.23-.64-2.68-.39-4.04.87-4.79,3.69-9.28,6.47-13.08,1.99-2.71,4.22-5.18,6.65-7.36,1.22-1.1,2.5-2.16,3.83-3.07,1.88-1.29,4.56-1.63,5.45.88,2.41,6.84.95,15.27-.97,22.04-.2.72-.43,1.44-.71,2.13h0ZM31.33,35c-1.14,1.02-2.1,2.39-1.49,3.69.19.4.53.75.92,1.01,1.5,1.02,2.83.56,3.42-.61.42-.84.69-1.73.79-2.68.07-.66.28-1.89-.36-2.55-1.17-1.22-2.66.59-3.28,1.14h0Z"/>
        <path d="M44.87,59.56c-.88.66-2.15.68-3.18-.05-1.75-1.24-1.76-3.3-1.6-5.13.21-2.39.53-4.78.95-7.15.36-2.02.52-3.69,1.44-5.56.39-.81,1.06-1.56,1.97-1.79,2.16-.55,4.04,1.89,5.21,3.31.63.77,1.2,1.59,1.77,2.4.67.97,1.3,1.98,2.03,2.91.62.8,1.4.76,1.33-.34-.14-2.18-.85-4.45-1.67-6.48-.77-1.9-2.02-3.72-1.94-5.82.06-1.7,1.79-3.19,3.56-2.4,1.71.77,2.49,2.75,3.05,4.32,1.59,4.51,2.7,9.23,2.78,13.99.03,2.08.15,4.33-1.08,6.12-.98,1.42-2.89,2.13-4.56,1.27-1.71-.88-2.79-3.23-3.64-4.78-.42-.77-3.19-6.61-4.47-3.97-.6,1.23-.39,2.78-.42,4.1-.03,1.39-.12,2.83-.74,4.11-.19.39-.46.71-.77.95h0Z"/>
        <path d="M54.01,26.29c-3.63.11-7.95,1.36-8.89-2.51-1.28-5.24,7.99-6.12,11.2-6.49,4.33-.49,8.72-.36,13.02.38,2.47.43,8.8,1.13,8.09,4.97-.53,2.9-4.2,2.75-6.41,3.02-3.71.45-3.95,4.16-3.73,7.16.35,4.68,1.59,9.33,3.46,13.63.92,2.11,2.47,4.44,1.03,6.73-.78,1.23-2.27,2.03-3.72,2.03-1.72,0-2.86-.79-3.75-2.25-1.71-2.84-2.13-6.58-2.53-9.81-.42-3.46-.58-6.95-.84-10.42-.19-2.47-.08-4.96-3.04-6.08-1.18-.44-2.64-.4-3.88-.36h0Z"/>
        <path d="M74.66,27.14c4.84-2.92,11.44.19,12.43,5.28,1.01,5.17-1.49,14.15-8.39,14.33-9.08.24-10.56-13.19-5.77-18.23.5-.53,1.08-1,1.72-1.39h0ZM78.71,37.71c.93.05,1.84-.53,2.34-1.25.73-1.04.98-2.8.05-3.79-.8-.86-2.47-1.22-3.5-.53-1.61,1.07-1.43,4.64.43,5.41.23.09.46.14.69.16h0Z"/>
        <path d="M87.07,58.9c-1.13.81-2.69.75-3.87-.35-.81-.75-.98-1.9-.87-2.97.14-1.4.48-2.85.8-4.22.33-1.4.71-2.8,1.23-4.15.61-1.59,1.52-3.68,3.42-3.97,1.6-.24,3.09.88,4.19,1.83,1.37,1.19,2.59,2.52,3.98,3.69.17.14.35.29.57.33,1.19.22.15-1.87-.03-2.25-1.07-2.24-2.68-4.18-4.17-6.18-1.21-1.63-2.88-3.98-1.58-6.02.77-1.21,2.57-1.38,3.75-.68,1.8,1.05,3.31,3.13,4.36,4.8,1.69,2.7,3.29,5.48,4.34,8.48.65,1.85,1.19,3.78,1.34,5.75.17,2.32-.43,6.07-3.75,5.76-2.9-.26-5.12-3.1-6.95-4.97-.77-.79-1.85-2.42-3.05-2.54-.93-.1-1.35.95-1.51,1.7-.34,1.61-.42,3.35-1.22,4.83-.25.47-.59.85-.97,1.12h0Z"/>
        <path d="M22.56,73.02c1.44-.47,3.26.13,3.75,1.54.24.69.15,1.45.37,2.14.21.69.75,1.29,1.45,1.53s1.54.07,2.04-.46c.3-.32.47-.75.53-1.18.22-1.6-1.03-3.08-2.49-3.83-2.71-1.38-5.97-1.31-8.68-2.73-2.16-1.13-3.4-3.12-3.66-5.5-.13-1.21.09-2.48.78-3.49.62-.92,1.59-1.57,2.6-2.06,3.14-1.54,7-1.67,10.32-.63,1.64.52,3.3,1.36,4.51,2.58,1.05,1.07,2.4,2.65,2.28,4.21-.12,1.55-1.53,2.87-3.1,3.05-1.58.17-3.19-.74-3.93-2.11-.77-1.42-2.29-3.23-4.25-2.18-.6.32-.89,1.05-.8,1.72.28,2.07,3.32,3.11,4.74,3.59,7.23,2.46,11.14,5.6,11.24,11.54.06,3.47-2.53,6.86-5.95,7.96s-7.36.11-10.07-2.2c-3.03-2.58-7.3-10.72-2.04-13.33.12-.06.25-.11.38-.16h0Z"/>
        <path d="M43.87,97.31c-.16.58-.36,1.12-.68,1.56-1.02,1.42-3.52,1.13-4.78.23-2.31-1.65-1.84-4.17-.99-6.42,1.07-2.85,2.13-5.71,3.19-8.57,1.29-3.49,2.08-7.16,3.55-10.58.98-2.29,3.63-5.42,6.32-3.5,1.78,1.27,2.7,3.83,3.55,5.77.99,2.26,1.73,4.62,2.27,7.03,1.75,7.7,2.41,13.39,2.28,18.26-.03,1.16-.64,2.38-1.69,2.86-.37.17-.78.23-1.19.28-1.67.19-3.74-.16-4.48-1.87-.3-.7-.37-1.47-.39-2.23-.07-2.37.53-7.15-2.74-7.7-1.19-.2-2.42-.15-3.09.98-.66,1.11-.78,2.61-1.13,3.91h0ZM48.26,78.63c-.87.33-1.19,1.66-1.4,2.37-.3,1.01-.43,2.04-.39,3.09.06,1.47,1.11,2.62,2.94,2.38.47-.06.94-.24,1.28-.54,1.12-.99.79-2.85.16-4.46-.34-.87-.98-3.44-2.58-2.83h0Z"/>
        <path d="M68.57,89.69c-.44-1.06-.12-2.41.86-3.21,1.3-1.05,3.2-1.3,4.77-1.64.5-.11,1.01-.21,1.51-.11,3.67.78,4.67,5.37,4.96,8.58.44,4.74-1.61,8.03-6.02,9.93-4.87,2.1-10.54.95-13.08-4.31-3.23-6.69-4.2-19.29,3.58-23.15,2.44-1.21,6.85-2.31,9.28-.43,1.31,1.02,1.75,3.24.74,4.63-.72,1-2.04,1.26-3.25,1.3-1.95.08-3.88.22-5.34,1.73-1.21,1.24-1.67,3.04-1.56,4.78.14,2.28,1.18,6.1,3.54,6.84.99.31,2.06.19,3.05-.11,1.07-.32,4.26-2.4,2.47-3.88-.99-.82-2.84.84-4.05.41-.74-.26-1.23-.77-1.48-1.36h0Z"/>
        <path d="M71.08,70.74c-.52.03-1.05.07-1.59.1-2.24.13-5.95-.13-6.43-2.83-.93-5.22,9.28-5.46,12.47-5.49,3.31-.03,17.47-1.28,16.87,4.46-.29,2.78-3.27,2.97-5.31,2.87-1.75-.09-2.86.03-3.04,1.88-.39,3.87,1.62,6.42,2.77,9.86,1.05,3.13-.15,5.32-3.28,5.66-3.07.33-4.13-2.69-4.87-5.21-.67-2.28-.73-4.67-.96-7.01-.42-4.35-3.2-4.47-6.63-4.27h0Z"/>
        <path d="M101.33,79.92c-1.63,3.27-5.12,9.34-9.53,7.57-5.08-2.03.11-10.15,1.21-13.18.92-2.54,1-6.01,2.74-8.12,1.73-2.11,5.64-2.92,7.55-.5,1.87,2.37.75,7.34-.13,9.88-.39,1.12-1.01,2.7-1.84,4.36h0ZM88.5,95.18c-.22.16-.44.29-.65.41-1.17.67-2.86.74-3.76-.51-.65-.92-1.15-2.54-.92-3.66.22-1.09.95-2.01,1.85-2.55.89-.53,1.95-.7,2.95-.49.82.18,1.83,1.12,2.29,1.86.22.36.37.73.46,1.13.35,1.54-.99,2.93-2.22,3.8h0Z"/>
      </g>
    </g>
  </g>
  <rect x="132.22" y="10.24" width="3.37" height="102.74" rx="1.69" ry="1.69"/>
  <g>
    <path d="M152.94,53.76c-.09-.69-.18-1.69-.29-3-.11-1.31-.23-2.82-.38-4.52-.14-1.7-.28-3.49-.42-5.36-.14-1.87-.27-3.73-.41-5.57-.14-1.84-.26-3.55-.37-5.13-.11-1.58-.2-2.94-.28-4.06-.08-1.12-.13-1.9-.16-2.32.63-.08,1.43-.16,2.4-.25s2-.17,3.08-.24c1.08-.07,2.12-.1,3.11-.1,2.68,0,4.96.29,6.83.87,1.87.58,3.38,1.48,4.53,2.72,1.16,1.24,2,2.84,2.52,4.8.52,1.96.79,4.33.79,7.08,0,3.16-.41,5.73-1.24,7.71s-2.09,3.5-3.8,4.57c-1.71,1.06-3.88,1.79-6.52,2.18s-5.77.59-9.4.61ZM160.19,45.37c1.49-.03,2.66-.28,3.51-.76.85-.48,1.44-1.16,1.79-2.05s.52-1.96.52-3.24c0-1.48-.17-2.92-.52-4.32-.34-1.39-.9-2.54-1.68-3.44s-1.82-1.35-3.14-1.35c-.24,0-.5,0-.78.01-.27,0-.5.02-.69.03.1,1.44.21,3.05.32,4.82s.23,3.56.34,5.35c.11,1.79.22,3.44.32,4.94Z"/>
    <path d="M182.18,53.36c-.37,0-.91-.01-1.62-.03s-1.47-.05-2.29-.08c-.83-.03-1.62-.06-2.39-.08-.77-.02-1.41-.05-1.93-.08.16-.97.38-2.19.67-3.64.29-1.45.62-3.05.99-4.8s.77-3.56,1.2-5.45c.42-1.89.85-3.77,1.29-5.63.44-1.87.87-3.65,1.3-5.35s.83-3.22,1.18-4.55c1.64-.21,3.19-.38,4.65-.51,1.46-.13,2.88-.19,4.24-.19.83,0,1.65.03,2.46.08.8.05,1.62.13,2.43.24.29,1.32.57,2.81.86,4.48.29,1.66.58,3.64.88,5.93.3,2.29.61,5,.92,8.13.31,3.13.62,6.83.94,11.09-.53.08-1.29.15-2.28.22s-2.02.13-3.1.18c-1.08.04-2.03.07-2.86.07-.03-.43-.05-.9-.08-1.41-.02-.5-.04-1.03-.05-1.59-.01-.55-.03-1.12-.04-1.69-.01-.57-.03-1.14-.04-1.7-.01-.56-.02-1.1-.02-1.61-.46.02-.93.03-1.42.06-.49.02-.97.04-1.44.07-.47.02-.92.05-1.32.09-.41.04-.77.08-1.09.12s-.55.08-.71.11c-.2.93-.39,1.86-.56,2.8s-.32,1.82-.45,2.64c-.13.82-.23,1.52-.3,2.09ZM184.49,38.78c.26-.04.7-.1,1.32-.16.62-.06,1.27-.11,1.95-.15s1.19-.06,1.55-.06c-.01-.28-.04-.84-.06-1.66-.03-.82-.06-1.73-.11-2.72-.04-.99-.08-1.88-.11-2.69s-.06-1.32-.09-1.56c-.2,0-.51.01-.93.03s-.81.05-1.2.08c-.38.03-.65.05-.81.07-.09.45-.2,1.06-.34,1.84-.14.78-.29,1.61-.44,2.5-.15.88-.29,1.72-.43,2.52-.14.79-.24,1.45-.31,1.96Z"/>
    <path d="M211.28,53.4c-.99,0-2.02-.11-3.1-.33-1.08-.22-2.14-.56-3.19-1.04-1.05-.47-2.03-1.09-2.94-1.85-.91-.76-1.68-1.69-2.32-2.79.09-.17.33-.45.74-.87.41-.41.89-.86,1.44-1.35.55-.49,1.1-.94,1.64-1.37.54-.43.97-.73,1.3-.91.53.6,1.06,1.16,1.58,1.68.52.52,1.07.97,1.63,1.36.56.39,1.15.69,1.76.91.61.22,1.25.33,1.93.33.72,0,1.29-.14,1.7-.42.42-.28.71-.63.89-1.07s.27-.88.27-1.35c0-.34-.08-.69-.24-1.03-.16-.34-.41-.69-.75-1.02s-.8-.68-1.37-1.02c-.57-.34-1.25-.68-2.06-1.01-1.72-.73-3.3-1.5-4.74-2.28-1.44-.79-2.58-1.73-3.44-2.84-.85-1.11-1.28-2.5-1.28-4.18,0-1.8.48-3.31,1.45-4.53.97-1.22,2.24-2.15,3.81-2.78,1.57-.63,3.26-.94,5.07-.94,1.28,0,2.54.13,3.78.4,1.24.27,2.43.71,3.55,1.32,1.13.61,2.13,1.44,3.03,2.48-.23.35-.61.82-1.13,1.44s-1.08,1.23-1.66,1.84c-.58.61-1.08,1.11-1.5,1.48-.62-.63-1.28-1.17-1.98-1.61-.7-.44-1.4-.78-2.1-1.02-.7-.24-1.35-.36-1.97-.36-.75,0-1.4.16-1.96.47-.56.31-.84.81-.84,1.48,0,.28.06.55.18.81s.31.49.55.7.55.41.9.61c.36.2.78.38,1.27.54,1.49.54,2.9,1.09,4.23,1.66,1.33.57,2.51,1.23,3.53,1.97,1.03.74,1.83,1.65,2.4,2.71.57,1.06.86,2.36.86,3.89s-.27,2.86-.82,4.07c-.55,1.21-1.31,2.25-2.3,3.11-.99.86-2.15,1.53-3.48,2-1.33.47-2.78.71-4.36.71Z"/>
  </g>
  <g>
    <path d="M152.17,70.48c-.09-.44-.18-1.08-.26-1.91-.08-.83-.15-1.71-.19-2.64-.05-.92-.08-1.75-.11-2.49-.03-.73-.04-1.22-.04-1.46,2.05-.16,4.38-.3,6.98-.41,2.6-.11,5.24-.17,7.91-.17,2.05,0,4.05.04,5.99.12,1.94.08,3.72.24,5.33.48,0,1.72-.06,3.32-.19,4.79-.13,1.47-.28,2.57-.47,3.28-.33,0-.8,0-1.4-.01-.6,0-1.27-.02-2-.03-.73,0-1.45-.02-2.16-.03-.71,0-1.31-.02-1.83-.04.04.68.08,1.66.14,2.95.06,1.29.12,2.76.21,4.42s.17,3.39.26,5.19c.09,1.8.18,3.57.26,5.31s.16,3.32.23,4.75c.07,1.43.14,2.6.19,3.5.05.91.08,1.43.08,1.58-.84.13-1.92.25-3.24.36-1.32.11-2.63.19-3.93.25-1.3.06-2.36.08-3.19.08-.06-1.06-.11-2.33-.17-3.8-.05-1.47-.1-3.06-.14-4.76-.04-1.7-.07-3.44-.11-5.22-.04-1.78-.06-3.52-.08-5.23-.02-1.71-.03-3.3-.03-4.76,0-.86,0-1.66.01-2.4,0-.74.02-1.42.04-2.02-.6.05-1.24.1-1.91.12-.67.03-1.35.06-2.05.08s-1.39.05-2.09.05c-.7,0-1.38.02-2.06.04Z"/>
    <path d="M182.35,98.69c-.11-2.07-.25-4.6-.41-7.58-.17-2.98-.33-6.17-.51-9.57-.17-3.4-.34-6.77-.49-10.12-.16-3.35-.3-6.42-.43-9.2.75-.07,1.71-.15,2.88-.23,1.17-.08,2.44-.16,3.8-.23,1.36-.07,2.7-.14,4.01-.19,1.31-.05,2.47-.08,3.47-.08,1.43,0,2.87.13,4.33.4s2.8.73,4.02,1.4c1.23.67,2.21,1.62,2.95,2.84.74,1.23,1.11,2.82,1.11,4.78s-.49,3.67-1.47,5.34c-.98,1.67-2.24,2.91-3.78,3.69.42.79.89,1.74,1.4,2.86.51,1.12,1.03,2.3,1.54,3.54.51,1.25,1.01,2.48,1.48,3.69s.9,2.33,1.26,3.34c.37,1.01.64,1.81.82,2.42-.6.37-1.41.71-2.42,1.04-1.01.33-2.04.62-3.09.88-1.05.26-1.96.46-2.73.6s-1.23.23-1.37.25c-.11-.62-.31-1.51-.6-2.66s-.64-2.42-1.03-3.79c-.39-1.37-.78-2.73-1.17-4.08-.38-1.35-.74-2.55-1.07-3.62-.33-1.07-.59-1.85-.77-2.35-.33.06-.65.11-.95.17s-.59.09-.87.11c-.27.02-.55.04-.82.05.06.48.13,1.19.22,2.16.09.96.18,2.06.27,3.3.09,1.24.18,2.5.26,3.79.08,1.29.15,2.5.21,3.62.05,1.13.08,2.06.08,2.79-.82.18-1.82.32-2.98.41-1.16.09-2.38.16-3.64.19-1.26.04-2.44.05-3.54.05ZM190.59,75.04c.49,0,1.01-.02,1.54-.05.53-.04,1.18-.11,1.95-.22.99-.17,1.81-.39,2.47-.69s1.15-.68,1.47-1.17.48-1.07.48-1.74c0-.82-.2-1.42-.6-1.79-.4-.37-.97-.6-1.7-.7-.73-.1-1.6-.15-2.61-.15-.29,0-.61,0-.96.03-.35.02-.69.05-1.03.08-.34.04-.65.07-.93.1-.28.03-.5.05-.65.07.04.31.07.68.11,1.11.04.43.08.89.14,1.37.06.49.1.97.14,1.44.04.48.07.92.11,1.32.04.4.06.73.08.99Z"/>
    <path d="M221.62,98.58c-.82,0-1.79,0-2.88-.03-1.1-.02-2.2-.05-3.31-.11-1.11-.05-2.12-.15-3.03-.27-.04-1.13-.07-2.61-.11-4.42s-.07-3.77-.1-5.86c-.03-2.1-.04-4.11-.04-6.06,0-3.02.03-6.21.08-9.57.05-3.36.12-6.82.19-10.37.35-.02.91-.04,1.68-.05.77-.02,1.63-.04,2.58-.07.95-.03,1.88-.05,2.79-.07.91-.02,1.66-.03,2.27-.03.11,1.87.2,3.99.28,6.37.07,2.38.13,4.84.18,7.37.04,2.54.07,5.01.07,7.43,0,1.21,0,2.43-.03,3.67-.02,1.24-.04,2.44-.06,3.62-.02,1.18-.05,2.3-.11,3.35s-.12,2.02-.19,2.9c-.07.88-.16,1.61-.25,2.2Z"/>
    <path d="M238.56,98.19c-1.26,0-2.59-.04-3.97-.12-1.38-.08-2.66-.17-3.82-.27s-2.06-.19-2.71-.26c.02-.15.03-.57.03-1.28s0-1.61.01-2.72c0-1.11.01-2.36.01-3.75s0-2.87.01-4.42c0-1.56.01-3.13.01-4.72,0-2.18,0-4.36-.03-6.55-.02-2.19-.05-4.23-.1-6.12-.05-1.89-.12-3.46-.21-4.71.38,0,.99.01,1.83.04.83.03,1.75.07,2.76.14,1.01.06,1.99.14,2.95.23s1.78.18,2.46.27c1.15,1.61,2.23,3.23,3.24,4.86,1.01,1.63,1.96,3.26,2.86,4.89.9,1.63,1.75,3.28,2.55,4.94.8,1.67,1.56,3.37,2.28,5.11l-1.07-19.97c.58,0,1.32.03,2.21.08.89.05,1.81.12,2.78.21.96.08,1.84.18,2.63.29.8.11,1.4.23,1.8.36.07.7.14,1.48.21,2.35.06.87.11,1.8.15,2.8.04,1,.07,2.03.11,3.1.04,1.07.06,2.16.07,3.25,0,1.1.01,2.18.01,3.24,0,2.05-.02,4.09-.07,6.11-.04,2.02-.11,3.9-.21,5.62s-.19,3.18-.3,4.37c-.11,1.19-.23,1.97-.36,2.33-.55.02-1.14.04-1.77.05-.63.02-1.28.03-1.94.03-.99,0-1.95-.02-2.87-.07s-1.7-.12-2.32-.23c-.15-.28-.39-.75-.74-1.42-.35-.67-.78-1.49-1.3-2.46-.52-.97-1.1-2.05-1.73-3.24-.63-1.19-1.29-2.43-1.99-3.72-.7-1.29-1.4-2.59-2.1-3.89-.71-1.3-1.39-2.55-2.04-3.76.07.49.13,1.22.18,2.17.05.95.09,2.04.14,3.27.04,1.23.09,2.5.14,3.83.04,1.33.08,2.62.11,3.89s.05,2.4.07,3.42c.02,1.02.03,1.83.03,2.43Z"/>
    <path d="M263.01,98.88c0-1.15-.02-2.61-.07-4.38-.05-1.77-.11-3.73-.18-5.9-.07-2.17-.16-4.43-.26-6.78-.1-2.35-.2-4.7-.3-7.04-.1-2.34-.21-4.57-.32-6.69-.11-2.11-.21-4-.3-5.67.71-.13,1.54-.22,2.47-.29.93-.06,1.8-.1,2.61-.1.99,0,1.91.04,2.76.11s1.52.16,1.99.25c0,.48.02,1.24.05,2.29.04,1.05.07,2.25.11,3.6s.08,2.71.14,4.09c.05,1.38.12,2.64.19,3.78.64-.6,1.33-1.4,2.06-2.38s1.5-2.1,2.29-3.36c.8-1.26,1.6-2.63,2.4-4.09.8-1.46,1.6-2.98,2.39-4.53,1.63,1.25,3.23,2.33,4.79,3.25,1.56.92,2.69,1.56,3.36,1.91-.2.51-.61,1.26-1.22,2.25-.61.99-1.35,2.08-2.21,3.28-.86,1.2-1.78,2.38-2.76,3.56-.98,1.17-1.95,2.19-2.92,3.05.88,1.03,1.76,2.13,2.65,3.31.89,1.18,1.73,2.37,2.54,3.56.81,1.19,1.54,2.31,2.21,3.36.67,1.05,1.23,1.99,1.68,2.8s.76,1.42.95,1.83c-.53.35-1.3.8-2.32,1.35s-2.1,1.08-3.25,1.61c-1.15.52-2.2.93-3.13,1.22-.22-.53-.54-1.22-.96-2.07-.42-.85-.91-1.79-1.46-2.8-.55-1.02-1.12-2.04-1.71-3.08-.6-1.03-1.16-2-1.7-2.9-.54-.9-1.04-1.65-1.5-2.25-.29.24-.56.43-.81.58-.25.15-.5.29-.76.44.07,1.03.16,2.16.25,3.41.09,1.25.17,2.45.25,3.62.07,1.17.14,2.19.19,3.05.05.86.08,1.44.08,1.73-.37.02-1.1.08-2.2.18-1.1.1-2.37.23-3.8.38-1.44.16-2.86.32-4.27.48Z"/>
    <path d="M306.18,98.47c-1.26,0-2.58-.13-3.96-.4-1.37-.26-2.73-.69-4.06-1.26-1.34-.58-2.59-1.33-3.75-2.27-1.16-.93-2.15-2.07-2.95-3.41.11-.2.43-.55.95-1.06s1.13-1.05,1.84-1.65,1.4-1.15,2.09-1.68c.69-.52,1.24-.89,1.66-1.11.68.73,1.35,1.41,2.02,2.05s1.36,1.19,2.07,1.66c.71.48,1.46.85,2.24,1.11.78.27,1.6.4,2.46.4.92,0,1.64-.17,2.17-.51s.91-.77,1.14-1.3c.23-.53.34-1.08.34-1.65,0-.42-.1-.84-.3-1.26-.2-.42-.52-.84-.96-1.25s-1.02-.83-1.74-1.25c-.72-.42-1.6-.83-2.62-1.24-2.2-.9-4.21-1.83-6.04-2.79-1.83-.96-3.29-2.12-4.38-3.47-1.09-1.35-1.63-3.06-1.63-5.11,0-2.2.62-4.04,1.85-5.53s2.86-2.62,4.86-3.39c2-.77,4.16-1.15,6.47-1.15,1.63,0,3.24.17,4.82.49s3.09.87,4.53,1.61,2.72,1.75,3.86,3.04c-.29.42-.77,1.01-1.44,1.76-.67.75-1.37,1.5-2.11,2.25-.74.75-1.38,1.36-1.91,1.81-.79-.77-1.63-1.42-2.53-1.96-.9-.54-1.79-.96-2.68-1.25-.89-.29-1.73-.44-2.51-.44-.95,0-1.79.19-2.5.58-.71.38-1.07.99-1.07,1.81,0,.35.08.68.23.99.15.31.39.6.7.85.31.26.7.5,1.15.74.46.24,1,.46,1.62.66,1.9.66,3.7,1.34,5.39,2.03,1.69.7,3.2,1.5,4.5,2.4,1.31.91,2.33,2.01,3.06,3.31.73,1.3,1.1,2.88,1.1,4.75s-.35,3.49-1.04,4.97c-.7,1.48-1.67,2.75-2.94,3.8-1.26,1.05-2.74,1.87-4.44,2.44-1.69.58-3.55.87-5.56.87Z"/>
    <path d="M324.16,98.19c0-.29,0-1.05.03-2.27s.04-2.74.08-4.57c.04-1.83.08-3.84.14-6.01.05-2.18.12-4.39.19-6.65.07-2.25.15-4.39.22-6.41.07-2.02.16-3.8.25-5.34.09-1.54.18-2.67.28-3.41,1.72-.35,3.51-.6,5.38-.75,1.87-.16,3.78-.23,5.74-.23,2.47,0,4.65.35,6.52,1.06,1.88.7,3.34,1.8,4.39,3.28,1.05,1.48,1.58,3.42,1.58,5.79s-.41,4.37-1.22,6.12-2.06,3.12-3.75,4.09c-1.69.97-3.81,1.46-6.37,1.46-.46,0-1.03-.04-1.7-.12s-1.16-.19-1.46-.32c0,.49-.01,1.37-.04,2.62-.03,1.25-.06,2.65-.1,4.19-.04,1.54-.07,3.01-.11,4.41s-.06,2.5-.08,3.31c-.48,0-1.16,0-2.04-.01-.89,0-1.84-.03-2.84-.05-1.01-.03-1.97-.06-2.88-.1-.92-.04-1.65-.06-2.2-.08ZM334.27,75.95c.31.06.68.11,1.1.15.42.05.81.07,1.18.07.79,0,1.5-.14,2.14-.41.64-.27,1.15-.67,1.53-1.19.38-.52.56-1.17.56-1.94,0-1.19-.34-2-1.02-2.42-.68-.42-1.59-.63-2.75-.63-.44,0-.89.02-1.36.07-.47.05-.96.1-1.47.15,0,.09,0,.33.01.71s.02.84.03,1.36c0,.52.02,1.06.03,1.61,0,.55.01,1.05.01,1.5v.97Z"/>
    <path d="M362.64,98.58c-.82,0-1.79,0-2.88-.03-1.1-.02-2.2-.05-3.31-.11s-2.12-.15-3.04-.27c-.04-1.13-.07-2.61-.11-4.42s-.07-3.77-.1-5.86c-.03-2.1-.04-4.11-.04-6.06,0-3.02.03-6.21.08-9.57s.12-6.82.19-10.37c.35-.02.91-.04,1.68-.05s1.63-.04,2.58-.07c.95-.03,1.88-.05,2.79-.07.91-.02,1.66-.03,2.27-.03.11,1.87.2,3.99.28,6.37.07,2.38.13,4.84.18,7.37.04,2.54.07,5.01.07,7.43,0,1.21,0,2.43-.03,3.67-.02,1.24-.04,2.44-.05,3.62s-.05,2.3-.11,3.35-.12,2.02-.19,2.9c-.07.88-.15,1.61-.25,2.2Z"/>
    <path d="M388.64,98.39c-1.74-.11-3.46-.22-5.18-.32-1.71-.1-3.44-.2-5.18-.29-1.57-.07-3.16-.16-4.76-.25s-3.2-.18-4.79-.27c-.11-3.17-.19-6.21-.25-9.13-.05-2.92-.08-5.66-.08-8.22,0-3.92.04-7.28.11-10.09.07-2.81.15-4.87.22-6.17,3.52-.68,6.78-1.17,9.79-1.47,3.01-.3,5.52-.49,7.54-.56,2.01-.07,3.27-.11,3.76-.11,0,1.32-.04,2.62-.12,3.91-.08,1.29-.19,2.65-.32,4.08l-10.98.91c-.04.16-.06.45-.07.87,0,.41-.02.86-.03,1.34,0,.49-.01.93-.01,1.35v.89c.44,0,.97,0,1.58-.01.61,0,1.28-.02,2-.04.72-.02,1.45-.03,2.17-.04.72,0,1.41-.02,2.06-.03.65,0,1.21-.02,1.69-.04l-.14,8.43c-.24-.02-.68-.04-1.33-.07s-1.4-.06-2.24-.1c-.84-.04-1.68-.07-2.51-.11-.83-.04-1.57-.06-2.2-.08-.63-.02-1.07-.03-1.3-.03-.02.17-.03.42-.04.76s-.02.71-.03,1.13c0,.41-.02.83-.03,1.25,0,.42-.02.81-.03,1.17,0,.36-.01.65-.01.87.2-.02.83-.03,1.88-.03h3.28c.84,0,1.67.01,2.49.04.81.03,1.57.06,2.28.11.7.05,1.29.1,1.77.15-.02.82-.06,1.77-.14,2.83-.07,1.06-.16,2.11-.26,3.16-.1,1.04-.21,1.95-.32,2.72s-.2,1.27-.28,1.51Z"/>
    <path d="M394.71,97.26c.07-1.01.14-2.38.21-4.11.06-1.73.11-3.67.15-5.82s.05-4.38.05-6.69-.02-4.58-.05-6.82c-.04-2.24-.09-4.33-.15-6.25-.06-1.92-.13-3.53-.21-4.83.6-.07,1.56-.17,2.87-.27,1.31-.11,2.67-.17,4.08-.17.64,0,1.39.02,2.27.05.87.04,1.46.09,1.77.17.02.82.01,1.91-.01,3.25s-.07,2.88-.12,4.61c-.05,1.73-.13,3.58-.22,5.55-.09,1.97-.19,3.99-.3,6.06-.05.97-.12,1.94-.19,2.91-.07.97-.15,1.83-.22,2.58,1.48-.09,2.9-.17,4.24-.23,1.35-.06,2.68-.1,4.01-.12,1.33-.02,2.69-.03,4.08-.03.09.49.17,1.32.23,2.49.06,1.16.12,2.4.16,3.72.05,1.32.07,2.46.07,3.43-2.25.31-4.55.54-6.91.69-2.35.15-4.59.22-6.71.22-1.7.02-3.35,0-4.93-.08s-2.97-.17-4.16-.3Z"/>
  </g>
</svg>